<svg xmlns="http://www.w3.org/2000/svg" width="880" height="2164" viewBox="0 0 880 2164" role="img" aria-labelledby="title desc">
<title id="title">All Repositories by Language</title>
<desc id="desc">Complete GitHub Linguist byte totals across 359 public repositories, including forks.</desc>
<rect x="0.5" y="0.5" width="879" height="99%" rx="8" fill="#0D1117" stroke="#30363D"/>
<style>text{font-family:-apple-system,BlinkMacSystemFont,"Segoe UI",Helvetica,Arial,sans-serif}.title{font-size:22px;font-weight:600;fill:#F0F6FC}.sub{font-size:13px;fill:#8B949E}.name{font-size:14px;font-weight:600;fill:#C9D1D9}.value{font-size:13px;fill:#8B949E}</style>
<text class="title" x="34" y="42">All Repositories by Language</text>
<text class="sub" x="34" y="68">359 public repositories · forks included · 342 with detected code · complete Linguist byte totals</text>
<clipPath id="bar"><rect x="34" y="91" width="812" height="18" rx="5"/></clipPath>
<g clip-path="url(#bar)">
<rect x="34.000" y="91" width="292.823" height="18" fill="#f34b7d"/>
<rect x="326.773" y="91" width="181.785" height="18" fill="#555555"/>
<rect x="508.509" y="91" width="92.664" height="18" fill="#3572A5"/>
<rect x="601.123" y="91" width="69.648" height="18" fill="#3178c6"/>
<rect x="670.721" y="91" width="43.815" height="18" fill="#DA5B0B"/>
<rect x="714.485" y="91" width="19.765" height="18" fill="#f1e05a"/>
<rect x="734.201" y="91" width="9.932" height="18" fill="#00ADD8"/>
<rect x="744.082" y="91" width="8.767" height="18" fill="#e34c26"/>
<rect x="752.799" y="91" width="8.171" height="18" fill="#b07219"/>
<rect x="760.920" y="91" width="7.560" height="18" fill="#C084FC"/>
<rect x="768.430" y="91" width="7.094" height="18" fill="#A97BFF"/>
<rect x="775.475" y="91" width="6.029" height="18" fill="#94A3B8"/>
<rect x="781.453" y="91" width="4.486" height="18" fill="#000080"/>
<rect x="785.890" y="91" width="4.436" height="18" fill="#22D3EE"/>
<rect x="790.276" y="91" width="4.294" height="18" fill="#A78BFA"/>
<rect x="794.520" y="91" width="4.017" height="18" fill="#89e051"/>
<rect x="798.488" y="91" width="3.520" height="18" fill="#dea584"/>
<rect x="801.957" y="91" width="3.498" height="18" fill="#427819"/>
<rect x="805.405" y="91" width="3.375" height="18" fill="#F472B6"/>
<rect x="808.730" y="91" width="3.069" height="18" fill="#4F5D95"/>
<rect x="811.749" y="91" width="2.819" height="18" fill="#2DD4BF"/>
<rect x="814.519" y="91" width="2.525" height="18" fill="#C084FC"/>
<rect x="816.994" y="91" width="2.034" height="18" fill="#FB923C"/>
<rect x="818.978" y="91" width="1.970" height="18" fill="#663399"/>
<rect x="820.898" y="91" width="1.909" height="18" fill="#F9A620"/>
<rect x="822.757" y="91" width="1.862" height="18" fill="#DA3434"/>
<rect x="824.569" y="91" width="1.720" height="18" fill="#A78BFA"/>
<rect x="826.239" y="91" width="1.667" height="18" fill="#34D399"/>
<rect x="827.855" y="91" width="1.517" height="18" fill="#178600"/>
<rect x="829.323" y="91" width="1.381" height="18" fill="#60A5FA"/>
<rect x="830.653" y="91" width="1.348" height="18" fill="#F472B6"/>
<rect x="831.952" y="91" width="1.173" height="18" fill="#FACC15"/>
<rect x="833.075" y="91" width="1.153" height="18" fill="#41b883"/>
<rect x="834.179" y="91" width="1.144" height="18" fill="#355570"/>
<rect x="835.273" y="91" width="0.990" height="18" fill="#FB923C"/>
<rect x="836.213" y="91" width="0.945" height="18" fill="#94A3B8"/>
<rect x="837.108" y="91" width="0.881" height="18" fill="#F9A620"/>
<rect x="837.939" y="91" width="0.854" height="18" fill="#22D3EE"/>
<rect x="838.743" y="91" width="0.719" height="18" fill="#A78BFA"/>
<rect x="839.412" y="91" width="0.639" height="18" fill="#34D399"/>
<rect x="840.002" y="91" width="0.590" height="18" fill="#FB7185"/>
<rect x="840.542" y="91" width="0.494" height="18" fill="#60A5FA"/>
<rect x="840.986" y="91" width="0.422" height="18" fill="#F472B6"/>
<rect x="841.358" y="91" width="0.392" height="18" fill="#FACC15"/>
<rect x="841.699" y="91" width="0.391" height="18" fill="#ff3e00"/>
<rect x="842.040" y="91" width="0.387" height="18" fill="#C1F12E"/>
<rect x="842.378" y="91" width="0.343" height="18" fill="#FB923C"/>
<rect x="842.671" y="91" width="0.322" height="18" fill="#94A3B8"/>
<rect x="842.943" y="91" width="0.309" height="18" fill="#F9A620"/>
<rect x="843.202" y="91" width="0.266" height="18" fill="#22D3EE"/>
<rect x="843.418" y="91" width="0.243" height="18" fill="#A78BFA"/>
<rect x="843.612" y="91" width="0.230" height="18" fill="#34D399"/>
<rect x="843.792" y="91" width="0.204" height="18" fill="#FB7185"/>
<rect x="843.946" y="91" width="0.184" height="18" fill="#60A5FA"/>
<rect x="844.080" y="91" width="0.181" height="18" fill="#F05138"/>
<rect x="844.212" y="91" width="0.168" height="18" fill="#FACC15"/>
<rect x="844.330" y="91" width="0.166" height="18" fill="#2DD4BF"/>
<rect x="844.446" y="91" width="0.164" height="18" fill="#C084FC"/>
<rect x="844.560" y="91" width="0.160" height="18" fill="#012456"/>
<rect x="844.670" y="91" width="0.153" height="18" fill="#94A3B8"/>
<rect x="844.773" y="91" width="0.148" height="18" fill="#F9A620"/>
<rect x="844.871" y="91" width="0.144" height="18" fill="#22D3EE"/>
<rect x="844.965" y="91" width="0.126" height="18" fill="#A78BFA"/>
<rect x="845.042" y="91" width="0.126" height="18" fill="#384d54"/>
<rect x="845.118" y="91" width="0.118" height="18" fill="#FB7185"/>
<rect x="845.185" y="91" width="0.118" height="18" fill="#60A5FA"/>
<rect x="845.253" y="91" width="0.110" height="18" fill="#F472B6"/>
<rect x="845.313" y="91" width="0.106" height="18" fill="#FACC15"/>
<rect x="845.369" y="91" width="0.095" height="18" fill="#2DD4BF"/>
<rect x="845.415" y="91" width="0.093" height="18" fill="#C084FC"/>
<rect x="845.458" y="91" width="0.092" height="18" fill="#FB923C"/>
<rect x="845.499" y="91" width="0.084" height="18" fill="#94A3B8"/>
<rect x="845.533" y="91" width="0.082" height="18" fill="#F9A620"/>
<rect x="845.565" y="91" width="0.081" height="18" fill="#22D3EE"/>
<rect x="845.596" y="91" width="0.081" height="18" fill="#A78BFA"/>
<rect x="845.627" y="91" width="0.081" height="18" fill="#701516"/>
<rect x="845.657" y="91" width="0.079" height="18" fill="#FB7185"/>
<rect x="845.687" y="91" width="0.072" height="18" fill="#60A5FA"/>
<rect x="845.709" y="91" width="0.069" height="18" fill="#F472B6"/>
<rect x="845.727" y="91" width="0.066" height="18" fill="#FACC15"/>
<rect x="845.743" y="91" width="0.066" height="18" fill="#2DD4BF"/>
<rect x="845.759" y="91" width="0.065" height="18" fill="#C084FC"/>
<rect x="845.774" y="91" width="0.065" height="18" fill="#FB923C"/>
<rect x="845.789" y="91" width="0.065" height="18" fill="#94A3B8"/>
<rect x="845.804" y="91" width="0.064" height="18" fill="#F9A620"/>
<rect x="845.818" y="91" width="0.064" height="18" fill="#22D3EE"/>
<rect x="845.833" y="91" width="0.063" height="18" fill="#A78BFA"/>
<rect x="845.846" y="91" width="0.061" height="18" fill="#34D399"/>
<rect x="845.857" y="91" width="0.060" height="18" fill="#FB7185"/>
<rect x="845.868" y="91" width="0.060" height="18" fill="#60A5FA"/>
<rect x="845.878" y="91" width="0.059" height="18" fill="#F472B6"/>
<rect x="845.887" y="91" width="0.059" height="18" fill="#FACC15"/>
<rect x="845.896" y="91" width="0.059" height="18" fill="#2DD4BF"/>
<rect x="845.905" y="91" width="0.058" height="18" fill="#C084FC"/>
<rect x="845.913" y="91" width="0.058" height="18" fill="#FB923C"/>
<rect x="845.921" y="91" width="0.057" height="18" fill="#94A3B8"/>
<rect x="845.928" y="91" width="0.056" height="18" fill="#F9A620"/>
<rect x="845.934" y="91" width="0.056" height="18" fill="#22D3EE"/>
<rect x="845.940" y="91" width="0.056" height="18" fill="#A78BFA"/>
<rect x="845.946" y="91" width="0.054" height="18" fill="#34D399"/>
<rect x="845.950" y="91" width="0.054" height="18" fill="#FB7185"/>
<rect x="845.954" y="91" width="0.054" height="18" fill="#60A5FA"/>
<rect x="845.958" y="91" width="0.054" height="18" fill="#F472B6"/>
<rect x="845.962" y="91" width="0.054" height="18" fill="#FACC15"/>
<rect x="845.966" y="91" width="0.054" height="18" fill="#2DD4BF"/>
<rect x="845.970" y="91" width="0.054" height="18" fill="#C084FC"/>
<rect x="845.973" y="91" width="0.053" height="18" fill="#FB923C"/>
<rect x="845.977" y="91" width="0.052" height="18" fill="#94A3B8"/>
<rect x="845.979" y="91" width="0.052" height="18" fill="#F9A620"/>
<rect x="845.981" y="91" width="0.052" height="18" fill="#22D3EE"/>
<rect x="845.983" y="91" width="0.052" height="18" fill="#A78BFA"/>
<rect x="845.985" y="91" width="0.052" height="18" fill="#34D399"/>
<rect x="845.987" y="91" width="0.052" height="18" fill="#FB7185"/>
<rect x="845.989" y="91" width="0.052" height="18" fill="#60A5FA"/>
<rect x="845.990" y="91" width="0.052" height="18" fill="#F472B6"/>
<rect x="845.992" y="91" width="0.051" height="18" fill="#FACC15"/>
<rect x="845.993" y="91" width="0.051" height="18" fill="#2DD4BF"/>
<rect x="845.994" y="91" width="0.051" height="18" fill="#C084FC"/>
<rect x="845.995" y="91" width="0.051" height="18" fill="#FB923C"/>
<rect x="845.996" y="91" width="0.051" height="18" fill="#94A3B8"/>
<rect x="845.996" y="91" width="0.051" height="18" fill="#F9A620"/>
<rect x="845.997" y="91" width="0.050" height="18" fill="#22D3EE"/>
<rect x="845.998" y="91" width="0.050" height="18" fill="#A78BFA"/>
<rect x="845.998" y="91" width="0.050" height="18" fill="#34D399"/>
<rect x="845.998" y="91" width="0.050" height="18" fill="#FB7185"/>
<rect x="845.998" y="91" width="0.050" height="18" fill="#60A5FA"/>
<rect x="845.999" y="91" width="0.050" height="18" fill="#F472B6"/>
<rect x="845.999" y="91" width="0.050" height="18" fill="#FACC15"/>
<rect x="845.999" y="91" width="0.050" height="18" fill="#2DD4BF"/>
<rect x="845.999" y="91" width="0.050" height="18" fill="#C084FC"/>
<rect x="845.999" y="91" width="0.050" height="18" fill="#FB923C"/>
<rect x="845.999" y="91" width="0.050" height="18" fill="#94A3B8"/>
<rect x="846.000" y="91" width="0.050" height="18" fill="#F9A620"/>
<rect x="846.000" y="91" width="0.050" height="18" fill="#22D3EE"/>
<rect x="846.000" y="91" width="0.050" height="18" fill="#A78BFA"/>
<rect x="846.000" y="91" width="0.050" height="18" fill="#34D399"/>
<rect x="846.000" y="91" width="0.050" height="18" fill="#FB7185"/>
<rect x="846.000" y="91" width="0.050" height="18" fill="#60A5FA"/>
</g>
<circle cx="40.0" cy="128" r="6" fill="#f34b7d"/>
<text class="name" x="54.0" y="132">C++</text>
<text class="value" x="432.0" y="132" text-anchor="end">36.06% · 725 MB</text>
<circle cx="40.0" cy="157" r="6" fill="#555555"/>
<text class="name" x="54.0" y="161">C</text>
<text class="value" x="432.0" y="161" text-anchor="end">22.38% · 450 MB</text>
<circle cx="40.0" cy="186" r="6" fill="#3572A5"/>
<text class="name" x="54.0" y="190">Python</text>
<text class="value" x="432.0" y="190" text-anchor="end">11.41% · 229 MB</text>
<circle cx="40.0" cy="215" r="6" fill="#3178c6"/>
<text class="name" x="54.0" y="219">TypeScript</text>
<text class="value" x="432.0" y="219" text-anchor="end">8.57% · 172 MB</text>
<circle cx="40.0" cy="244" r="6" fill="#DA5B0B"/>
<text class="name" x="54.0" y="248">Jupyter Notebook</text>
<text class="value" x="432.0" y="248" text-anchor="end">5.39% · 108 MB</text>
<circle cx="40.0" cy="273" r="6" fill="#f1e05a"/>
<text class="name" x="54.0" y="277">JavaScript</text>
<text class="value" x="432.0" y="277" text-anchor="end">2.43% · 49 MB</text>
<circle cx="40.0" cy="302" r="6" fill="#00ADD8"/>
<text class="name" x="54.0" y="306">Go</text>
<text class="value" x="432.0" y="306" text-anchor="end">1.22% · 24 MB</text>
<circle cx="40.0" cy="331" r="6" fill="#e34c26"/>
<text class="name" x="54.0" y="335">HTML</text>
<text class="value" x="432.0" y="335" text-anchor="end">1.07% · 22 MB</text>
<circle cx="40.0" cy="360" r="6" fill="#b07219"/>
<text class="name" x="54.0" y="364">Java</text>
<text class="value" x="432.0" y="364" text-anchor="end">1.00% · 20 MB</text>
<circle cx="40.0" cy="389" r="6" fill="#C084FC"/>
<text class="name" x="54.0" y="393">LilyPond</text>
<text class="value" x="432.0" y="393" text-anchor="end">0.92% · 19 MB</text>
<circle cx="40.0" cy="418" r="6" fill="#A97BFF"/>
<text class="name" x="54.0" y="422">Kotlin</text>
<text class="value" x="432.0" y="422" text-anchor="end">0.87% · 17 MB</text>
<circle cx="40.0" cy="447" r="6" fill="#94A3B8"/>
<text class="name" x="54.0" y="451">Vim Script</text>
<text class="value" x="432.0" y="451" text-anchor="end">0.74% · 15 MB</text>
<circle cx="40.0" cy="476" r="6" fill="#000080"/>
<text class="name" x="54.0" y="480">Lua</text>
<text class="value" x="432.0" y="480" text-anchor="end">0.55% · 11 MB</text>
<circle cx="40.0" cy="505" r="6" fill="#22D3EE"/>
<text class="name" x="54.0" y="509">FIRRTL</text>
<text class="value" x="432.0" y="509" text-anchor="end">0.54% · 11 MB</text>
<circle cx="40.0" cy="534" r="6" fill="#A78BFA"/>
<text class="name" x="54.0" y="538">Faust</text>
<text class="value" x="432.0" y="538" text-anchor="end">0.52% · 11 MB</text>
<circle cx="40.0" cy="563" r="6" fill="#89e051"/>
<text class="name" x="54.0" y="567">Shell</text>
<text class="value" x="432.0" y="567" text-anchor="end">0.49% · 9.8 MB</text>
<circle cx="40.0" cy="592" r="6" fill="#dea584"/>
<text class="name" x="54.0" y="596">Rust</text>
<text class="value" x="432.0" y="596" text-anchor="end">0.43% · 8.6 MB</text>
<circle cx="40.0" cy="621" r="6" fill="#427819"/>
<text class="name" x="54.0" y="625">Makefile</text>
<text class="value" x="432.0" y="625" text-anchor="end">0.42% · 8.5 MB</text>
<circle cx="40.0" cy="650" r="6" fill="#F472B6"/>
<text class="name" x="54.0" y="654">Assembly</text>
<text class="value" x="432.0" y="654" text-anchor="end">0.41% · 8.2 MB</text>
<circle cx="40.0" cy="679" r="6" fill="#4F5D95"/>
<text class="name" x="54.0" y="683">PHP</text>
<text class="value" x="432.0" y="683" text-anchor="end">0.37% · 7.5 MB</text>
<circle cx="40.0" cy="708" r="6" fill="#2DD4BF"/>
<text class="name" x="54.0" y="712">QML</text>
<text class="value" x="432.0" y="712" text-anchor="end">0.34% · 6.9 MB</text>
<circle cx="40.0" cy="737" r="6" fill="#C084FC"/>
<text class="name" x="54.0" y="741">CartoCSS</text>
<text class="value" x="432.0" y="741" text-anchor="end">0.30% · 6.1 MB</text>
<circle cx="40.0" cy="766" r="6" fill="#FB923C"/>
<text class="name" x="54.0" y="770">XSLT</text>
<text class="value" x="432.0" y="770" text-anchor="end">0.24% · 4.9 MB</text>
<circle cx="40.0" cy="795" r="6" fill="#663399"/>
<text class="name" x="54.0" y="799">CSS</text>
<text class="value" x="432.0" y="799" text-anchor="end">0.24% · 4.8 MB</text>
<circle cx="40.0" cy="824" r="6" fill="#F9A620"/>
<text class="name" x="54.0" y="828">Rich Text Format</text>
<text class="value" x="432.0" y="828" text-anchor="end">0.23% · 4.6 MB</text>
<circle cx="40.0" cy="853" r="6" fill="#DA3434"/>
<text class="name" x="54.0" y="857">CMake</text>
<text class="value" x="432.0" y="857" text-anchor="end">0.22% · 4.5 MB</text>
<circle cx="40.0" cy="882" r="6" fill="#A78BFA"/>
<text class="name" x="54.0" y="886">Cuda</text>
<text class="value" x="432.0" y="886" text-anchor="end">0.21% · 4.1 MB</text>
<circle cx="40.0" cy="911" r="6" fill="#34D399"/>
<text class="name" x="54.0" y="915">Objective-C</text>
<text class="value" x="432.0" y="915" text-anchor="end">0.20% · 4.0 MB</text>
<circle cx="40.0" cy="940" r="6" fill="#178600"/>
<text class="name" x="54.0" y="944">C#</text>
<text class="value" x="432.0" y="944" text-anchor="end">0.18% · 3.6 MB</text>
<circle cx="40.0" cy="969" r="6" fill="#60A5FA"/>
<text class="name" x="54.0" y="973">Objective-C++</text>
<text class="value" x="432.0" y="973" text-anchor="end">0.16% · 3.3 MB</text>
<circle cx="40.0" cy="998" r="6" fill="#F472B6"/>
<text class="name" x="54.0" y="1002">GLSL</text>
<text class="value" x="432.0" y="1002" text-anchor="end">0.16% · 3.2 MB</text>
<circle cx="40.0" cy="1027" r="6" fill="#FACC15"/>
<text class="name" x="54.0" y="1031">MDX</text>
<text class="value" x="432.0" y="1031" text-anchor="end">0.14% · 2.8 MB</text>
<circle cx="40.0" cy="1056" r="6" fill="#41b883"/>
<text class="name" x="54.0" y="1060">Vue</text>
<text class="value" x="432.0" y="1060" text-anchor="end">0.14% · 2.7 MB</text>
<circle cx="40.0" cy="1085" r="6" fill="#355570"/>
<text class="name" x="54.0" y="1089">GDScript</text>
<text class="value" x="432.0" y="1089" text-anchor="end">0.13% · 2.7 MB</text>
<circle cx="40.0" cy="1114" r="6" fill="#FB923C"/>
<text class="name" x="54.0" y="1118">Tcl</text>
<text class="value" x="432.0" y="1118" text-anchor="end">0.12% · 2.3 MB</text>
<circle cx="40.0" cy="1143" r="6" fill="#94A3B8"/>
<text class="name" x="54.0" y="1147">MLIR</text>
<text class="value" x="432.0" y="1147" text-anchor="end">0.11% · 2.2 MB</text>
<circle cx="40.0" cy="1172" r="6" fill="#F9A620"/>
<text class="name" x="54.0" y="1176">Perl</text>
<text class="value" x="432.0" y="1176" text-anchor="end">0.10% · 2.1 MB</text>
<circle cx="40.0" cy="1201" r="6" fill="#22D3EE"/>
<text class="name" x="54.0" y="1205">OpenSCAD</text>
<text class="value" x="432.0" y="1205" text-anchor="end">0.10% · 2.0 MB</text>
<circle cx="40.0" cy="1230" r="6" fill="#A78BFA"/>
<text class="name" x="54.0" y="1234">Cython</text>
<text class="value" x="432.0" y="1234" text-anchor="end">0.08% · 1.7 MB</text>
<circle cx="40.0" cy="1259" r="6" fill="#34D399"/>
<text class="name" x="54.0" y="1263">M4</text>
<text class="value" x="432.0" y="1263" text-anchor="end">0.07% · 1.5 MB</text>
<circle cx="40.0" cy="1288" r="6" fill="#FB7185"/>
<text class="name" x="54.0" y="1292">Standard ML</text>
<text class="value" x="432.0" y="1292" text-anchor="end">0.07% · 1.3 MB</text>
<circle cx="40.0" cy="1317" r="6" fill="#60A5FA"/>
<text class="name" x="54.0" y="1321">Scheme</text>
<text class="value" x="432.0" y="1321" text-anchor="end">0.05% · 1.1 MB</text>
<circle cx="40.0" cy="1346" r="6" fill="#F472B6"/>
<text class="name" x="54.0" y="1350">Go Template</text>
<text class="value" x="432.0" y="1350" text-anchor="end">0.05% · 943 KB</text>
<circle cx="40.0" cy="1375" r="6" fill="#FACC15"/>
<text class="name" x="54.0" y="1379">TeX</text>
<text class="value" x="432.0" y="1379" text-anchor="end">0.04% · 866 KB</text>
<circle cx="40.0" cy="1404" r="6" fill="#ff3e00"/>
<text class="name" x="54.0" y="1408">Svelte</text>
<text class="value" x="432.0" y="1408" text-anchor="end">0.04% · 865 KB</text>
<circle cx="40.0" cy="1433" r="6" fill="#C1F12E"/>
<text class="name" x="54.0" y="1437">Batchfile</text>
<text class="value" x="432.0" y="1437" text-anchor="end">0.04% · 856 KB</text>
<circle cx="40.0" cy="1462" r="6" fill="#FB923C"/>
<text class="name" x="54.0" y="1466">VHDL</text>
<text class="value" x="432.0" y="1466" text-anchor="end">0.04% · 743 KB</text>
<circle cx="40.0" cy="1491" r="6" fill="#94A3B8"/>
<text class="name" x="54.0" y="1495">Common Lisp</text>
<text class="value" x="432.0" y="1495" text-anchor="end">0.03% · 689 KB</text>
<circle cx="40.0" cy="1520" r="6" fill="#F9A620"/>
<text class="name" x="54.0" y="1524">SCSS</text>
<text class="value" x="432.0" y="1524" text-anchor="end">0.03% · 657 KB</text>
<circle cx="40.0" cy="1549" r="6" fill="#22D3EE"/>
<text class="name" x="54.0" y="1553">Meson</text>
<text class="value" x="432.0" y="1553" text-anchor="end">0.03% · 548 KB</text>
<circle cx="40.0" cy="1578" r="6" fill="#A78BFA"/>
<text class="name" x="54.0" y="1582">XS</text>
<text class="value" x="432.0" y="1582" text-anchor="end">0.02% · 490 KB</text>
<circle cx="40.0" cy="1607" r="6" fill="#34D399"/>
<text class="name" x="54.0" y="1611">Inno Setup</text>
<text class="value" x="432.0" y="1611" text-anchor="end">0.02% · 456 KB</text>
<circle cx="40.0" cy="1636" r="6" fill="#FB7185"/>
<text class="name" x="54.0" y="1640">NSIS</text>
<text class="value" x="432.0" y="1640" text-anchor="end">0.02% · 391 KB</text>
<circle cx="40.0" cy="1665" r="6" fill="#60A5FA"/>
<text class="name" x="54.0" y="1669">Roff</text>
<text class="value" x="432.0" y="1669" text-anchor="end">0.02% · 340 KB</text>
<circle cx="40.0" cy="1694" r="6" fill="#F05138"/>
<text class="name" x="54.0" y="1698">Swift</text>
<text class="value" x="432.0" y="1698" text-anchor="end">0.02% · 333 KB</text>
<circle cx="40.0" cy="1723" r="6" fill="#FACC15"/>
<text class="name" x="54.0" y="1727">Max</text>
<text class="value" x="432.0" y="1727" text-anchor="end">0.01% · 300 KB</text>
<circle cx="40.0" cy="1752" r="6" fill="#2DD4BF"/>
<text class="name" x="54.0" y="1756">Metal</text>
<text class="value" x="432.0" y="1756" text-anchor="end">0.01% · 295 KB</text>
<circle cx="40.0" cy="1781" r="6" fill="#C084FC"/>
<text class="name" x="54.0" y="1785">Fluent</text>
<text class="value" x="432.0" y="1785" text-anchor="end">0.01% · 289 KB</text>
<circle cx="40.0" cy="1810" r="6" fill="#012456"/>
<text class="name" x="54.0" y="1814">PowerShell</text>
<text class="value" x="432.0" y="1814" text-anchor="end">0.01% · 280 KB</text>
<circle cx="40.0" cy="1839" r="6" fill="#94A3B8"/>
<text class="name" x="54.0" y="1843">Visual Basic .NET</text>
<text class="value" x="432.0" y="1843" text-anchor="end">0.01% · 261 KB</text>
<circle cx="40.0" cy="1868" r="6" fill="#F9A620"/>
<text class="name" x="54.0" y="1872">Yacc</text>
<text class="value" x="432.0" y="1872" text-anchor="end">0.01% · 248 KB</text>
<circle cx="40.0" cy="1897" r="6" fill="#22D3EE"/>
<text class="name" x="54.0" y="1901">Scilab</text>
<text class="value" x="432.0" y="1901" text-anchor="end">0.01% · 239 KB</text>
<circle cx="40.0" cy="1926" r="6" fill="#A78BFA"/>
<text class="name" x="54.0" y="1930">Starlark</text>
<text class="value" x="432.0" y="1930" text-anchor="end">0.01% · 194 KB</text>
<circle cx="40.0" cy="1955" r="6" fill="#384d54"/>
<text class="name" x="54.0" y="1959">Dockerfile</text>
<text class="value" x="432.0" y="1959" text-anchor="end">0.01% · 193 KB</text>
<circle cx="40.0" cy="1984" r="6" fill="#FB7185"/>
<text class="name" x="54.0" y="1988">Nix</text>
<text class="value" x="432.0" y="1988" text-anchor="end">0.01% · 172 KB</text>
<circle cx="40.0" cy="2013" r="6" fill="#60A5FA"/>
<text class="name" x="54.0" y="2017">VBA</text>
<text class="value" x="432.0" y="2017" text-anchor="end">0.01% · 172 KB</text>
<circle cx="40.0" cy="2042" r="6" fill="#F472B6"/>
<text class="name" x="54.0" y="2046">BibTeX Style</text>
<text class="value" x="432.0" y="2046" text-anchor="end">0.01% · 153 KB</text>
<circle cx="40.0" cy="2071" r="6" fill="#FACC15"/>
<text class="name" x="54.0" y="2075">Less</text>
<text class="value" x="432.0" y="2075" text-anchor="end">0.01% · 142 KB</text>
<circle cx="40.0" cy="2100" r="6" fill="#2DD4BF"/>
<text class="name" x="54.0" y="2104">Handlebars</text>
<text class="value" x="432.0" y="2104" text-anchor="end">0.01% · 115 KB</text>
<circle cx="446.0" cy="128" r="6" fill="#C084FC"/>
<text class="name" x="460.0" y="132">D</text>
<text class="value" x="838.0" y="132" text-anchor="end">0.01% · 108 KB</text>
<circle cx="446.0" cy="157" r="6" fill="#FB923C"/>
<text class="name" x="460.0" y="161">Jinja</text>
<text class="value" x="838.0" y="161" text-anchor="end">0.01% · 105 KB</text>
<circle cx="446.0" cy="186" r="6" fill="#94A3B8"/>
<text class="name" x="460.0" y="190">Lex</text>
<text class="value" x="838.0" y="190" text-anchor="end">0.00% · 86 KB</text>
<circle cx="446.0" cy="215" r="6" fill="#F9A620"/>
<text class="name" x="460.0" y="219">Beef</text>
<text class="value" x="838.0" y="219" text-anchor="end">0.00% · 82 KB</text>
<circle cx="446.0" cy="244" r="6" fill="#22D3EE"/>
<text class="name" x="460.0" y="248">Sass</text>
<text class="value" x="838.0" y="248" text-anchor="end">0.00% · 78 KB</text>
<circle cx="446.0" cy="273" r="6" fill="#A78BFA"/>
<text class="name" x="460.0" y="277">AMPL</text>
<text class="value" x="838.0" y="277" text-anchor="end">0.00% · 78 KB</text>
<circle cx="446.0" cy="302" r="6" fill="#701516"/>
<text class="name" x="460.0" y="306">Ruby</text>
<text class="value" x="838.0" y="306" text-anchor="end">0.00% · 77 KB</text>
<circle cx="446.0" cy="331" r="6" fill="#FB7185"/>
<text class="name" x="460.0" y="335">Scala</text>
<text class="value" x="838.0" y="335" text-anchor="end">0.00% · 74 KB</text>
<circle cx="446.0" cy="360" r="6" fill="#60A5FA"/>
<text class="name" x="460.0" y="364">Awk</text>
<text class="value" x="838.0" y="364" text-anchor="end">0.00% · 55 KB</text>
<circle cx="446.0" cy="389" r="6" fill="#F472B6"/>
<text class="name" x="460.0" y="393">Visual Basic 6.0</text>
<text class="value" x="838.0" y="393" text-anchor="end">0.00% · 47 KB</text>
<circle cx="446.0" cy="418" r="6" fill="#FACC15"/>
<text class="name" x="460.0" y="422">Mako</text>
<text class="value" x="838.0" y="422" text-anchor="end">0.00% · 41 KB</text>
<circle cx="446.0" cy="447" r="6" fill="#2DD4BF"/>
<text class="name" x="460.0" y="451">Julia</text>
<text class="value" x="838.0" y="451" text-anchor="end">0.00% · 40 KB</text>
<circle cx="446.0" cy="476" r="6" fill="#C084FC"/>
<text class="name" x="460.0" y="480">Tree-sitter Query</text>
<text class="value" x="838.0" y="480" text-anchor="end">0.00% · 39 KB</text>
<circle cx="446.0" cy="505" r="6" fill="#FB923C"/>
<text class="name" x="460.0" y="509">MATLAB</text>
<text class="value" x="838.0" y="509" text-anchor="end">0.00% · 38 KB</text>
<circle cx="446.0" cy="534" r="6" fill="#94A3B8"/>
<text class="name" x="460.0" y="538">Fortran</text>
<text class="value" x="838.0" y="538" text-anchor="end">0.00% · 37 KB</text>
<circle cx="446.0" cy="563" r="6" fill="#F9A620"/>
<text class="name" x="460.0" y="567">Blade</text>
<text class="value" x="838.0" y="567" text-anchor="end">0.00% · 37 KB</text>
<circle cx="446.0" cy="592" r="6" fill="#22D3EE"/>
<text class="name" x="460.0" y="596">PostScript</text>
<text class="value" x="838.0" y="596" text-anchor="end">0.00% · 36 KB</text>
<circle cx="446.0" cy="621" r="6" fill="#A78BFA"/>
<text class="name" x="460.0" y="625">Pascal</text>
<text class="value" x="838.0" y="625" text-anchor="end">0.00% · 34 KB</text>
<circle cx="446.0" cy="650" r="6" fill="#34D399"/>
<text class="name" x="460.0" y="654">Just</text>
<text class="value" x="838.0" y="654" text-anchor="end">0.00% · 28 KB</text>
<circle cx="446.0" cy="679" r="6" fill="#FB7185"/>
<text class="name" x="460.0" y="683">M</text>
<text class="value" x="838.0" y="683" text-anchor="end">0.00% · 27 KB</text>
<circle cx="446.0" cy="708" r="6" fill="#60A5FA"/>
<text class="name" x="460.0" y="712">SWIG</text>
<text class="value" x="838.0" y="712" text-anchor="end">0.00% · 26 KB</text>
<circle cx="446.0" cy="737" r="6" fill="#F472B6"/>
<text class="name" x="460.0" y="741">Astro</text>
<text class="value" x="838.0" y="741" text-anchor="end">0.00% · 24 KB</text>
<circle cx="446.0" cy="766" r="6" fill="#FACC15"/>
<text class="name" x="460.0" y="770">Emacs Lisp</text>
<text class="value" x="838.0" y="770" text-anchor="end">0.00% · 23 KB</text>
<circle cx="446.0" cy="795" r="6" fill="#2DD4BF"/>
<text class="name" x="460.0" y="799">AIDL</text>
<text class="value" x="838.0" y="799" text-anchor="end">0.00% · 22 KB</text>
<circle cx="446.0" cy="824" r="6" fill="#C084FC"/>
<text class="name" x="460.0" y="828">Pawn</text>
<text class="value" x="838.0" y="828" text-anchor="end">0.00% · 21 KB</text>
<circle cx="446.0" cy="853" r="6" fill="#FB923C"/>
<text class="name" x="460.0" y="857">HCL</text>
<text class="value" x="838.0" y="857" text-anchor="end">0.00% · 21 KB</text>
<circle cx="446.0" cy="882" r="6" fill="#94A3B8"/>
<text class="name" x="460.0" y="886">PLpgSQL</text>
<text class="value" x="838.0" y="886" text-anchor="end">0.00% · 17 KB</text>
<circle cx="446.0" cy="911" r="6" fill="#F9A620"/>
<text class="name" x="460.0" y="915">YARA</text>
<text class="value" x="838.0" y="915" text-anchor="end">0.00% · 16 KB</text>
<circle cx="446.0" cy="940" r="6" fill="#22D3EE"/>
<text class="name" x="460.0" y="944">EJS</text>
<text class="value" x="838.0" y="944" text-anchor="end">0.00% · 15 KB</text>
<circle cx="446.0" cy="969" r="6" fill="#A78BFA"/>
<text class="name" x="460.0" y="973">DIGITAL Command Language</text>
<text class="value" x="838.0" y="973" text-anchor="end">0.00% · 15 KB</text>
<circle cx="446.0" cy="998" r="6" fill="#34D399"/>
<text class="name" x="460.0" y="1002">VBScript</text>
<text class="value" x="838.0" y="1002" text-anchor="end">0.00% · 11 KB</text>
<circle cx="446.0" cy="1027" r="6" fill="#FB7185"/>
<text class="name" x="460.0" y="1031">GAP</text>
<text class="value" x="838.0" y="1031" text-anchor="end">0.00% · 11 KB</text>
<circle cx="446.0" cy="1056" r="6" fill="#60A5FA"/>
<text class="name" x="460.0" y="1060">QMake</text>
<text class="value" x="838.0" y="1060" text-anchor="end">0.00% · 10 KB</text>
<circle cx="446.0" cy="1085" r="6" fill="#F472B6"/>
<text class="name" x="460.0" y="1089">AppleScript</text>
<text class="value" x="838.0" y="1089" text-anchor="end">0.00% · 10 KB</text>
<circle cx="446.0" cy="1114" r="6" fill="#FACC15"/>
<text class="name" x="460.0" y="1118">LLVM</text>
<text class="value" x="838.0" y="1118" text-anchor="end">0.00% · 9.2 KB</text>
<circle cx="446.0" cy="1143" r="6" fill="#2DD4BF"/>
<text class="name" x="460.0" y="1147">WebAssembly</text>
<text class="value" x="838.0" y="1147" text-anchor="end">0.00% · 9.1 KB</text>
<circle cx="446.0" cy="1172" r="6" fill="#C084FC"/>
<text class="name" x="460.0" y="1176">PLSQL</text>
<text class="value" x="838.0" y="1176" text-anchor="end">0.00% · 8.9 KB</text>
<circle cx="446.0" cy="1201" r="6" fill="#FB923C"/>
<text class="name" x="460.0" y="1205">G-code</text>
<text class="value" x="838.0" y="1205" text-anchor="end">0.00% · 8.6 KB</text>
<circle cx="446.0" cy="1230" r="6" fill="#94A3B8"/>
<text class="name" x="460.0" y="1234">Vala</text>
<text class="value" x="838.0" y="1234" text-anchor="end">0.00% · 5.9 KB</text>
<circle cx="446.0" cy="1259" r="6" fill="#F9A620"/>
<text class="name" x="460.0" y="1263">F#</text>
<text class="value" x="838.0" y="1263" text-anchor="end">0.00% · 5.6 KB</text>
<circle cx="446.0" cy="1288" r="6" fill="#22D3EE"/>
<text class="name" x="460.0" y="1292">Slash</text>
<text class="value" x="838.0" y="1292" text-anchor="end">0.00% · 5.5 KB</text>
<circle cx="446.0" cy="1317" r="6" fill="#A78BFA"/>
<text class="name" x="460.0" y="1321">Rez</text>
<text class="value" x="838.0" y="1321" text-anchor="end">0.00% · 4.8 KB</text>
<circle cx="446.0" cy="1346" r="6" fill="#34D399"/>
<text class="name" x="460.0" y="1350">Smarty</text>
<text class="value" x="838.0" y="1350" text-anchor="end">0.00% · 4.6 KB</text>
<circle cx="446.0" cy="1375" r="6" fill="#FB7185"/>
<text class="name" x="460.0" y="1379">KRL</text>
<text class="value" x="838.0" y="1379" text-anchor="end">0.00% · 4.1 KB</text>
<circle cx="446.0" cy="1404" r="6" fill="#60A5FA"/>
<text class="name" x="460.0" y="1408">Thrift</text>
<text class="value" x="838.0" y="1408" text-anchor="end">0.00% · 4.0 KB</text>
<circle cx="446.0" cy="1433" r="6" fill="#F472B6"/>
<text class="name" x="460.0" y="1437">Groovy</text>
<text class="value" x="838.0" y="1437" text-anchor="end">0.00% · 3.8 KB</text>
<circle cx="446.0" cy="1462" r="6" fill="#FACC15"/>
<text class="name" x="460.0" y="1466">GDB</text>
<text class="value" x="838.0" y="1466" text-anchor="end">0.00% · 2.9 KB</text>
<circle cx="446.0" cy="1491" r="6" fill="#2DD4BF"/>
<text class="name" x="460.0" y="1495">Prolog</text>
<text class="value" x="838.0" y="1495" text-anchor="end">0.00% · 2.8 KB</text>
<circle cx="446.0" cy="1520" r="6" fill="#C084FC"/>
<text class="name" x="460.0" y="1524">Mermaid</text>
<text class="value" x="838.0" y="1524" text-anchor="end">0.00% · 2.3 KB</text>
<circle cx="446.0" cy="1549" r="6" fill="#FB923C"/>
<text class="name" x="460.0" y="1553">Hack</text>
<text class="value" x="838.0" y="1553" text-anchor="end">0.00% · 2.0 KB</text>
<circle cx="446.0" cy="1578" r="6" fill="#94A3B8"/>
<text class="name" x="460.0" y="1582">Raku</text>
<text class="value" x="838.0" y="1582" text-anchor="end">0.00% · 1.8 KB</text>
<circle cx="446.0" cy="1607" r="6" fill="#F9A620"/>
<text class="name" x="460.0" y="1611">Linker Script</text>
<text class="value" x="838.0" y="1611" text-anchor="end">0.00% · 1.6 KB</text>
<circle cx="446.0" cy="1636" r="6" fill="#22D3EE"/>
<text class="name" x="460.0" y="1640">Clojure</text>
<text class="value" x="838.0" y="1640" text-anchor="end">0.00% · 1.2 KB</text>
<circle cx="446.0" cy="1665" r="6" fill="#A78BFA"/>
<text class="name" x="460.0" y="1669">Vim Snippet</text>
<text class="value" x="838.0" y="1669" text-anchor="end">0.00% · 891 B</text>
<circle cx="446.0" cy="1694" r="6" fill="#34D399"/>
<text class="name" x="460.0" y="1698">Verilog</text>
<text class="value" x="838.0" y="1698" text-anchor="end">0.00% · 729 B</text>
<circle cx="446.0" cy="1723" r="6" fill="#FB7185"/>
<text class="name" x="460.0" y="1727">Pug</text>
<text class="value" x="838.0" y="1727" text-anchor="end">0.00% · 654 B</text>
<circle cx="446.0" cy="1752" r="6" fill="#60A5FA"/>
<text class="name" x="460.0" y="1756">jq</text>
<text class="value" x="838.0" y="1756" text-anchor="end">0.00% · 629 B</text>
<circle cx="446.0" cy="1781" r="6" fill="#F472B6"/>
<text class="name" x="460.0" y="1785">CoffeeScript</text>
<text class="value" x="838.0" y="1785" text-anchor="end">0.00% · 590 B</text>
<circle cx="446.0" cy="1810" r="6" fill="#FACC15"/>
<text class="name" x="460.0" y="1814">sed</text>
<text class="value" x="838.0" y="1814" text-anchor="end">0.00% · 449 B</text>
<circle cx="446.0" cy="1839" r="6" fill="#2DD4BF"/>
<text class="name" x="460.0" y="1843">BitBake</text>
<text class="value" x="838.0" y="1843" text-anchor="end">0.00% · 388 B</text>
<circle cx="446.0" cy="1868" r="6" fill="#C084FC"/>
<text class="name" x="460.0" y="1872">R</text>
<text class="value" x="838.0" y="1872" text-anchor="end">0.00% · 362 B</text>
<circle cx="446.0" cy="1897" r="6" fill="#FB923C"/>
<text class="name" x="460.0" y="1901">ShaderLab</text>
<text class="value" x="838.0" y="1901" text-anchor="end">0.00% · 330 B</text>
<circle cx="446.0" cy="1926" r="6" fill="#94A3B8"/>
<text class="name" x="460.0" y="1930">Dart</text>
<text class="value" x="838.0" y="1930" text-anchor="end">0.00% · 324 B</text>
<circle cx="446.0" cy="1955" r="6" fill="#F9A620"/>
<text class="name" x="460.0" y="1959">NWScript</text>
<text class="value" x="838.0" y="1959" text-anchor="end">0.00% · 289 B</text>
<circle cx="446.0" cy="1984" r="6" fill="#22D3EE"/>
<text class="name" x="460.0" y="1988">Io</text>
<text class="value" x="838.0" y="1988" text-anchor="end">0.00% · 238 B</text>
<circle cx="446.0" cy="2013" r="6" fill="#A78BFA"/>
<text class="name" x="460.0" y="2017">Reason</text>
<text class="value" x="838.0" y="2017" text-anchor="end">0.00% · 232 B</text>
<circle cx="446.0" cy="2042" r="6" fill="#34D399"/>
<text class="name" x="460.0" y="2046">HLSL</text>
<text class="value" x="838.0" y="2046" text-anchor="end">0.00% · 184 B</text>
<circle cx="446.0" cy="2071" r="6" fill="#FB7185"/>
<text class="name" x="460.0" y="2075">Cool</text>
<text class="value" x="838.0" y="2075" text-anchor="end">0.00% · 147 B</text>
<circle cx="446.0" cy="2100" r="6" fill="#60A5FA"/>
<text class="name" x="460.0" y="2104">SRecode Template</text>
<text class="value" x="838.0" y="2104" text-anchor="end">0.00% · 2 B</text>
</svg>
