<svg xmlns="http://www.w3.org/2000/svg" width="900" height="509" viewBox="0 0 900 509" role="img" aria-labelledby="title description">
<title id="title">Languages Used</title>
<desc id="description">Language usage across 411 repositories and 138 languages.</desc>
<rect x="0.5" y="0.5" width="899" height="508" rx="10" fill="#0D1117" stroke="#30363D"/>
<style>text{font-family:-apple-system,BlinkMacSystemFont,"Segoe UI",Helvetica,Arial,sans-serif}.heading{font-size:23px;font-weight:700;fill:#F0F6FC}.subheading{font-size:13px;fill:#8B949E}.legend-name{font-size:14px;font-weight:600;fill:#C9D1D9}.legend-value{font-size:13px;fill:#8B949E}.center-total{font-size:21px;font-weight:700;fill:#F0F6FC}.center-label{font-size:12px;fill:#8B949E}</style>
<text class="heading" x="34" y="43">Languages Used</text>
<text class="subheading" x="34" y="68">411 repositories · 138 languages</text>
<path d="M 225.805 130.502 A 142 142 0 0 1 347.506 344.307 L 293.155 312.449 A 79 79 0 0 0 225.448 193.501 Z" fill="#F34B7D" stroke="#0D1117" stroke-width="1"><title>C++: 33.53% (770 MB)</title></path>
<path d="M 346.683 345.692 A 142 142 0 0 1 189.600 410.017 L 205.306 349.006 A 79 79 0 0 0 292.697 313.220 Z" fill="#555555" stroke="#0D1117" stroke-width="1"><title>C: 20.57% (472 MB)</title></path>
<path d="M 188.042 409.606 A 142 142 0 0 1 106.638 350.950 L 159.151 316.145 A 79 79 0 0 0 204.439 348.777 Z" fill="#3178C6" stroke="#0D1117" stroke-width="1"><title>TypeScript: 11.67% (268 MB)</title></path>
<path d="M 105.755 349.602 A 142 142 0 0 1 84.367 252.847 L 146.760 261.566 A 79 79 0 0 0 158.660 315.395 Z" fill="#3572A5" stroke="#0D1117" stroke-width="1"><title>Python: 11.53% (265 MB)</title></path>
<path d="M 84.599 251.253 A 142 142 0 0 1 96.252 212.601 L 153.373 239.176 A 79 79 0 0 0 146.889 260.680 Z" fill="#DA5B0B" stroke="#0D1117" stroke-width="1"><title>Jupyter Notebook: 4.72% (108 MB)</title></path>
<path d="M 96.940 211.144 A 142 142 0 0 1 113.312 184.809 L 162.864 223.714 A 79 79 0 0 0 153.755 238.365 Z" fill="#F1E05A" stroke="#0D1117" stroke-width="1"><title>JavaScript: 3.66% (84 MB)</title></path>
<path d="M 114.211 183.676 A 142 142 0 0 1 124.012 172.673 L 168.816 216.963 A 79 79 0 0 0 163.364 223.084 Z" fill="#DEA584" stroke="#0D1117" stroke-width="1"><title>Rust: 1.80% (41 MB)</title></path>
<path d="M 124.792 171.890 A 142 142 0 0 1 132.641 164.640 L 173.617 212.493 A 79 79 0 0 0 169.251 216.527 Z" fill="#00ADD8" stroke="#0D1117" stroke-width="1"><title>Go: 1.30% (30 MB)</title></path>
<path d="M 133.269 164.106 A 142 142 0 0 1 139.724 158.957 L 177.558 209.332 A 79 79 0 0 0 173.966 212.196 Z" fill="#E34C26" stroke="#0D1117" stroke-width="1"><title>HTML: 1.01% (23 MB)</title></path>
<path d="M 140.264 158.553 A 142 142 0 0 1 146.190 154.377 L 181.155 206.784 A 79 79 0 0 0 177.858 209.107 Z" fill="#B07219" stroke="#0D1117" stroke-width="1"><title>Java: 0.88% (20 MB)</title></path>
<path d="M 146.693 154.043 A 142 142 0 0 1 152.324 150.507 L 184.568 204.631 A 79 79 0 0 0 181.435 206.598 Z" fill="#51D668" stroke="#0D1117" stroke-width="1"><title>LilyPond: 0.81% (19 MB)</title></path>
<path d="M 153.267 149.951 A 142 142 0 0 1 224.195 130.502 L 224.552 193.501 A 79 79 0 0 0 185.092 204.321 Z" fill="#8B949E" stroke="#0D1117" stroke-width="1"><title>Other (127 languages): 8.52% (196 MB)</title></path>
<text class="center-total" x="225" y="267.5" text-anchor="middle">2.2 GB</text>
<text class="center-label" x="225" y="290.5" text-anchor="middle">GitHub Linguist bytes</text>
<rect x="425" y="115" width="14" height="14" rx="3" fill="#F34B7D"/>
<text class="legend-name" x="448" y="127">C++</text>
<text class="legend-value" x="858" y="127" text-anchor="end">33.53% · 770 MB</text>
<rect x="425" y="142" width="14" height="14" rx="3" fill="#555555"/>
<text class="legend-name" x="448" y="154">C</text>
<text class="legend-value" x="858" y="154" text-anchor="end">20.57% · 472 MB</text>
<rect x="425" y="169" width="14" height="14" rx="3" fill="#3178C6"/>
<text class="legend-name" x="448" y="181">TypeScript</text>
<text class="legend-value" x="858" y="181" text-anchor="end">11.67% · 268 MB</text>
<rect x="425" y="196" width="14" height="14" rx="3" fill="#3572A5"/>
<text class="legend-name" x="448" y="208">Python</text>
<text class="legend-value" x="858" y="208" text-anchor="end">11.53% · 265 MB</text>
<rect x="425" y="223" width="14" height="14" rx="3" fill="#DA5B0B"/>
<text class="legend-name" x="448" y="235">Jupyter Notebook</text>
<text class="legend-value" x="858" y="235" text-anchor="end">4.72% · 108 MB</text>
<rect x="425" y="250" width="14" height="14" rx="3" fill="#F1E05A"/>
<text class="legend-name" x="448" y="262">JavaScript</text>
<text class="legend-value" x="858" y="262" text-anchor="end">3.66% · 84 MB</text>
<rect x="425" y="277" width="14" height="14" rx="3" fill="#DEA584"/>
<text class="legend-name" x="448" y="289">Rust</text>
<text class="legend-value" x="858" y="289" text-anchor="end">1.80% · 41 MB</text>
<rect x="425" y="304" width="14" height="14" rx="3" fill="#00ADD8"/>
<text class="legend-name" x="448" y="316">Go</text>
<text class="legend-value" x="858" y="316" text-anchor="end">1.30% · 30 MB</text>
<rect x="425" y="331" width="14" height="14" rx="3" fill="#E34C26"/>
<text class="legend-name" x="448" y="343">HTML</text>
<text class="legend-value" x="858" y="343" text-anchor="end">1.01% · 23 MB</text>
<rect x="425" y="358" width="14" height="14" rx="3" fill="#B07219"/>
<text class="legend-name" x="448" y="370">Java</text>
<text class="legend-value" x="858" y="370" text-anchor="end">0.88% · 20 MB</text>
<rect x="425" y="385" width="14" height="14" rx="3" fill="#51D668"/>
<text class="legend-name" x="448" y="397">LilyPond</text>
<text class="legend-value" x="858" y="397" text-anchor="end">0.81% · 19 MB</text>
<rect x="425" y="412" width="14" height="14" rx="3" fill="#8B949E"/>
<text class="legend-name" x="448" y="424">Other (127 languages)</text>
<text class="legend-value" x="858" y="424" text-anchor="end">8.52% · 196 MB</text>
</svg>
