<svg xmlns="http://www.w3.org/2000/svg" width="900" height="509" viewBox="0 0 900 509" role="img" aria-labelledby="title description">
<title id="title">Languages Used</title>
<desc id="description">Language usage across 376 repositories and 138 languages.</desc>
<rect x="0.5" y="0.5" width="899" height="508" rx="10" fill="#0D1117" stroke="#30363D"/>
<style>text{font-family:-apple-system,BlinkMacSystemFont,"Segoe UI",Helvetica,Arial,sans-serif}.heading{font-size:23px;font-weight:700;fill:#F0F6FC}.subheading{font-size:13px;fill:#8B949E}.legend-name{font-size:14px;font-weight:600;fill:#C9D1D9}.legend-value{font-size:13px;fill:#8B949E}.center-total{font-size:21px;font-weight:700;fill:#F0F6FC}.center-label{font-size:12px;fill:#8B949E}</style>
<text class="heading" x="34" y="43">Languages Used</text>
<text class="subheading" x="34" y="68">376 repositories · 138 languages</text>
<path d="M 225.805 130.502 A 142 142 0 0 1 339.785 356.097 L 288.859 319.008 A 79 79 0 0 0 225.448 193.501 Z" fill="#F34B7D" stroke="#0D1117" stroke-width="1"><title>C++: 35.11% (725 MB)</title></path>
<path d="M 338.829 357.394 A 142 142 0 0 1 166.062 401.691 L 192.210 344.374 A 79 79 0 0 0 288.327 319.730 Z" fill="#555555" stroke="#0D1117" stroke-width="1"><title>C: 21.79% (450 MB)</title></path>
<path d="M 164.600 401.014 A 142 142 0 0 1 94.441 328.343 L 152.365 303.568 A 79 79 0 0 0 191.397 343.997 Z" fill="#3572A5" stroke="#0D1117" stroke-width="1"><title>Python: 11.76% (243 MB)</title></path>
<path d="M 93.816 326.858 A 142 142 0 0 1 84.480 252.052 L 146.823 261.124 A 79 79 0 0 0 152.018 302.742 Z" fill="#3178C6" stroke="#0D1117" stroke-width="1"><title>TypeScript: 8.73% (180 MB)</title></path>
<path d="M 84.721 250.459 A 142 142 0 0 1 98.672 207.652 L 154.719 236.423 A 79 79 0 0 0 146.957 260.238 Z" fill="#DA5B0B" stroke="#0D1117" stroke-width="1"><title>Jupyter Notebook: 5.25% (108 MB)</title></path>
<path d="M 99.416 206.223 A 142 142 0 0 1 113.947 184.006 L 163.217 223.268 A 79 79 0 0 0 155.133 235.628 Z" fill="#F1E05A" stroke="#0D1117" stroke-width="1"><title>JavaScript: 3.16% (65 MB)</title></path>
<path d="M 114.759 182.996 A 142 142 0 0 1 122.218 174.522 L 167.818 217.991 A 79 79 0 0 0 163.669 222.706 Z" fill="#00ADD8" stroke="#0D1117" stroke-width="1"><title>Go: 1.38% (28 MB)</title></path>
<path d="M 122.817 173.897 A 142 142 0 0 1 128.985 167.881 L 171.583 214.297 A 79 79 0 0 0 168.152 217.643 Z" fill="#E34C26" stroke="#0D1117" stroke-width="1"><title>HTML: 1.05% (22 MB)</title></path>
<path d="M 129.520 167.393 A 142 142 0 0 1 135.631 162.150 L 175.280 211.108 A 79 79 0 0 0 171.881 214.025 Z" fill="#B07219" stroke="#0D1117" stroke-width="1"><title>Java: 0.98% (20 MB)</title></path>
<path d="M 136.155 161.728 A 142 142 0 0 1 142.071 157.231 L 178.864 208.372 A 79 79 0 0 0 175.572 210.873 Z" fill="#DEA584" stroke="#0D1117" stroke-width="1"><title>Rust: 0.91% (19 MB)</title></path>
<path d="M 142.596 156.856 A 142 142 0 0 1 148.725 152.725 L 182.565 205.865 A 79 79 0 0 0 179.155 208.163 Z" fill="#51D668" stroke="#0D1117" stroke-width="1"><title>LilyPond: 0.90% (19 MB)</title></path>
<path d="M 149.678 152.123 A 142 142 0 0 1 224.195 130.502 L 224.552 193.501 A 79 79 0 0 0 183.095 205.530 Z" fill="#8B949E" stroke="#0D1117" stroke-width="1"><title>Other (127 languages): 8.99% (186 MB)</title></path>
<text class="center-total" x="225" y="267.5" text-anchor="middle">2.0 GB</text>
<text class="center-label" x="225" y="290.5" text-anchor="middle">GitHub Linguist bytes</text>
<rect x="425" y="115" width="14" height="14" rx="3" fill="#F34B7D"/>
<text class="legend-name" x="448" y="127">C++</text>
<text class="legend-value" x="858" y="127" text-anchor="end">35.11% · 725 MB</text>
<rect x="425" y="142" width="14" height="14" rx="3" fill="#555555"/>
<text class="legend-name" x="448" y="154">C</text>
<text class="legend-value" x="858" y="154" text-anchor="end">21.79% · 450 MB</text>
<rect x="425" y="169" width="14" height="14" rx="3" fill="#3572A5"/>
<text class="legend-name" x="448" y="181">Python</text>
<text class="legend-value" x="858" y="181" text-anchor="end">11.76% · 243 MB</text>
<rect x="425" y="196" width="14" height="14" rx="3" fill="#3178C6"/>
<text class="legend-name" x="448" y="208">TypeScript</text>
<text class="legend-value" x="858" y="208" text-anchor="end">8.73% · 180 MB</text>
<rect x="425" y="223" width="14" height="14" rx="3" fill="#DA5B0B"/>
<text class="legend-name" x="448" y="235">Jupyter Notebook</text>
<text class="legend-value" x="858" y="235" text-anchor="end">5.25% · 108 MB</text>
<rect x="425" y="250" width="14" height="14" rx="3" fill="#F1E05A"/>
<text class="legend-name" x="448" y="262">JavaScript</text>
<text class="legend-value" x="858" y="262" text-anchor="end">3.16% · 65 MB</text>
<rect x="425" y="277" width="14" height="14" rx="3" fill="#00ADD8"/>
<text class="legend-name" x="448" y="289">Go</text>
<text class="legend-value" x="858" y="289" text-anchor="end">1.38% · 28 MB</text>
<rect x="425" y="304" width="14" height="14" rx="3" fill="#E34C26"/>
<text class="legend-name" x="448" y="316">HTML</text>
<text class="legend-value" x="858" y="316" text-anchor="end">1.05% · 22 MB</text>
<rect x="425" y="331" width="14" height="14" rx="3" fill="#B07219"/>
<text class="legend-name" x="448" y="343">Java</text>
<text class="legend-value" x="858" y="343" text-anchor="end">0.98% · 20 MB</text>
<rect x="425" y="358" width="14" height="14" rx="3" fill="#DEA584"/>
<text class="legend-name" x="448" y="370">Rust</text>
<text class="legend-value" x="858" y="370" text-anchor="end">0.91% · 19 MB</text>
<rect x="425" y="385" width="14" height="14" rx="3" fill="#51D668"/>
<text class="legend-name" x="448" y="397">LilyPond</text>
<text class="legend-value" x="858" y="397" text-anchor="end">0.90% · 19 MB</text>
<rect x="425" y="412" width="14" height="14" rx="3" fill="#8B949E"/>
<text class="legend-name" x="448" y="424">Other (127 languages)</text>
<text class="legend-value" x="858" y="424" text-anchor="end">8.99% · 186 MB</text>
</svg>
