<svg xmlns="http://www.w3.org/2000/svg" width="900" height="509" viewBox="0 0 900 509" role="img" aria-labelledby="title description">
<title id="title">Languages Used</title>
<desc id="description">Language usage across 432 repositories and 139 languages.</desc>
<rect x="0.5" y="0.5" width="899" height="508" rx="10" fill="#0D1117" stroke="#30363D"/>
<style>text{font-family:-apple-system,BlinkMacSystemFont,"Segoe UI",Helvetica,Arial,sans-serif}.heading{font-size:23px;font-weight:700;fill:#F0F6FC}.subheading{font-size:13px;fill:#8B949E}.legend-name{font-size:14px;font-weight:600;fill:#C9D1D9}.legend-value{font-size:13px;fill:#8B949E}.center-total{font-size:21px;font-weight:700;fill:#F0F6FC}.center-label{font-size:12px;fill:#8B949E}</style>
<text class="heading" x="34" y="43">Languages Used</text>
<text class="subheading" x="34" y="68">432 repositories · 139 languages</text>
<path d="M 225.805 130.502 A 142 142 0 0 1 350.987 338.008 L 295.091 308.945 A 79 79 0 0 0 225.448 193.501 Z" fill="#F34B7D" stroke="#0D1117" stroke-width="1"><title>C++: 32.72% (770 MB)</title></path>
<path d="M 350.236 339.433 A 142 142 0 0 1 200.942 412.447 L 211.616 350.358 A 79 79 0 0 0 294.673 309.737 Z" fill="#555555" stroke="#0D1117" stroke-width="1"><title>C: 20.08% (472 MB)</title></path>
<path d="M 199.356 412.165 A 142 142 0 0 1 109.335 354.875 L 160.651 318.328 A 79 79 0 0 0 210.733 350.201 Z" fill="#3178C6" stroke="#0D1117" stroke-width="1"><title>TypeScript: 12.44% (293 MB)</title></path>
<path d="M 108.408 353.557 A 142 142 0 0 1 84.534 251.687 L 146.853 260.921 A 79 79 0 0 0 160.135 317.595 Z" fill="#3572A5" stroke="#0D1117" stroke-width="1"><title>Python: 12.19% (287 MB)</title></path>
<path d="M 84.779 250.095 A 142 142 0 0 1 96.316 212.462 L 153.408 239.099 A 79 79 0 0 0 146.990 260.035 Z" fill="#DA5B0B" stroke="#0D1117" stroke-width="1"><title>Jupyter Notebook: 4.61% (108 MB)</title></path>
<path d="M 97.006 211.006 A 142 142 0 0 1 114.836 182.901 L 163.712 222.653 A 79 79 0 0 0 153.792 238.289 Z" fill="#F1E05A" stroke="#0D1117" stroke-width="1"><title>JavaScript: 3.92% (92 MB)</title></path>
<path d="M 115.745 181.796 A 142 142 0 0 1 125.477 171.212 L 169.632 216.150 A 79 79 0 0 0 164.217 222.038 Z" fill="#DEA584" stroke="#0D1117" stroke-width="1"><title>Rust: 1.75% (41 MB)</title></path>
<path d="M 126.251 170.458 A 142 142 0 0 1 134.036 163.461 L 174.393 211.837 A 79 79 0 0 0 170.062 215.730 Z" fill="#00ADD8" stroke="#0D1117" stroke-width="1"><title>Go: 1.28% (30 MB)</title></path>
<path d="M 134.662 162.942 A 142 142 0 0 1 141.158 157.894 L 178.355 208.740 A 79 79 0 0 0 174.741 211.549 Z" fill="#E34C26" stroke="#0D1117" stroke-width="1"><title>HTML: 1.00% (24 MB)</title></path>
<path d="M 141.696 157.503 A 142 142 0 0 1 147.526 153.497 L 181.898 206.294 A 79 79 0 0 0 178.655 208.523 Z" fill="#B07219" stroke="#0D1117" stroke-width="1"><title>Java: 0.86% (20 MB)</title></path>
<path d="M 148.020 153.176 A 142 142 0 0 1 153.551 149.785 L 185.250 204.229 A 79 79 0 0 0 182.173 206.116 Z" fill="#51D668" stroke="#0D1117" stroke-width="1"><title>LilyPond: 0.79% (19 MB)</title></path>
<path d="M 154.493 149.241 A 142 142 0 0 1 224.195 130.502 L 224.552 193.501 A 79 79 0 0 0 185.774 203.926 Z" fill="#8B949E" stroke="#0D1117" stroke-width="1"><title>Other (128 languages): 8.36% (197 MB)</title></path>
<text class="center-total" x="225" y="267.5" text-anchor="middle">2.3 GB</text>
<text class="center-label" x="225" y="290.5" text-anchor="middle">GitHub Linguist bytes</text>
<rect x="425" y="115" width="14" height="14" rx="3" fill="#F34B7D"/>
<text class="legend-name" x="448" y="127">C++</text>
<text class="legend-value" x="858" y="127" text-anchor="end">32.72% · 770 MB</text>
<rect x="425" y="142" width="14" height="14" rx="3" fill="#555555"/>
<text class="legend-name" x="448" y="154">C</text>
<text class="legend-value" x="858" y="154" text-anchor="end">20.08% · 472 MB</text>
<rect x="425" y="169" width="14" height="14" rx="3" fill="#3178C6"/>
<text class="legend-name" x="448" y="181">TypeScript</text>
<text class="legend-value" x="858" y="181" text-anchor="end">12.44% · 293 MB</text>
<rect x="425" y="196" width="14" height="14" rx="3" fill="#3572A5"/>
<text class="legend-name" x="448" y="208">Python</text>
<text class="legend-value" x="858" y="208" text-anchor="end">12.19% · 287 MB</text>
<rect x="425" y="223" width="14" height="14" rx="3" fill="#DA5B0B"/>
<text class="legend-name" x="448" y="235">Jupyter Notebook</text>
<text class="legend-value" x="858" y="235" text-anchor="end">4.61% · 108 MB</text>
<rect x="425" y="250" width="14" height="14" rx="3" fill="#F1E05A"/>
<text class="legend-name" x="448" y="262">JavaScript</text>
<text class="legend-value" x="858" y="262" text-anchor="end">3.92% · 92 MB</text>
<rect x="425" y="277" width="14" height="14" rx="3" fill="#DEA584"/>
<text class="legend-name" x="448" y="289">Rust</text>
<text class="legend-value" x="858" y="289" text-anchor="end">1.75% · 41 MB</text>
<rect x="425" y="304" width="14" height="14" rx="3" fill="#00ADD8"/>
<text class="legend-name" x="448" y="316">Go</text>
<text class="legend-value" x="858" y="316" text-anchor="end">1.28% · 30 MB</text>
<rect x="425" y="331" width="14" height="14" rx="3" fill="#E34C26"/>
<text class="legend-name" x="448" y="343">HTML</text>
<text class="legend-value" x="858" y="343" text-anchor="end">1.00% · 24 MB</text>
<rect x="425" y="358" width="14" height="14" rx="3" fill="#B07219"/>
<text class="legend-name" x="448" y="370">Java</text>
<text class="legend-value" x="858" y="370" text-anchor="end">0.86% · 20 MB</text>
<rect x="425" y="385" width="14" height="14" rx="3" fill="#51D668"/>
<text class="legend-name" x="448" y="397">LilyPond</text>
<text class="legend-value" x="858" y="397" text-anchor="end">0.79% · 19 MB</text>
<rect x="425" y="412" width="14" height="14" rx="3" fill="#8B949E"/>
<text class="legend-name" x="448" y="424">Other (128 languages)</text>
<text class="legend-value" x="858" y="424" text-anchor="end">8.36% · 197 MB</text>
</svg>
