<svg xmlns="http://www.w3.org/2000/svg" width="900" height="509" viewBox="0 0 900 509" role="img" aria-labelledby="title description">
<title id="title">Languages Used</title>
<desc id="description">Language usage across 413 repositories and 138 languages.</desc>
<rect x="0.5" y="0.5" width="899" height="508" rx="10" fill="#0D1117" stroke="#30363D"/>
<style>text{font-family:-apple-system,BlinkMacSystemFont,"Segoe UI",Helvetica,Arial,sans-serif}.heading{font-size:23px;font-weight:700;fill:#F0F6FC}.subheading{font-size:13px;fill:#8B949E}.legend-name{font-size:14px;font-weight:600;fill:#C9D1D9}.legend-value{font-size:13px;fill:#8B949E}.center-total{font-size:21px;font-weight:700;fill:#F0F6FC}.center-label{font-size:12px;fill:#8B949E}</style>
<text class="heading" x="34" y="43">Languages Used</text>
<text class="subheading" x="34" y="68">413 repositories · 138 languages</text>
<path d="M 225.805 130.502 A 142 142 0 0 1 347.780 343.838 L 293.307 312.188 A 79 79 0 0 0 225.448 193.501 Z" fill="#F34B7D" stroke="#0D1117" stroke-width="1"><title>C++: 33.47% (770 MB)</title></path>
<path d="M 346.962 345.227 A 142 142 0 0 1 190.437 410.229 L 205.771 349.124 A 79 79 0 0 0 292.852 312.961 Z" fill="#555555" stroke="#0D1117" stroke-width="1"><title>C: 20.54% (472 MB)</title></path>
<path d="M 188.877 409.829 A 142 142 0 0 1 107.129 351.685 L 159.424 316.554 A 79 79 0 0 0 204.903 348.901 Z" fill="#3572A5" stroke="#0D1117" stroke-width="1"><title>Python: 11.67% (268 MB)</title></path>
<path d="M 106.238 350.343 A 142 142 0 0 1 84.401 252.600 L 146.780 261.429 A 79 79 0 0 0 158.928 315.807 Z" fill="#3178C6" stroke="#0D1117" stroke-width="1"><title>TypeScript: 11.65% (268 MB)</title></path>
<path d="M 84.636 251.006 A 142 142 0 0 1 96.322 212.450 L 153.412 239.092 A 79 79 0 0 0 146.910 260.542 Z" fill="#DA5B0B" stroke="#0D1117" stroke-width="1"><title>Jupyter Notebook: 4.71% (108 MB)</title></path>
<path d="M 97.012 210.994 A 142 142 0 0 1 113.375 184.728 L 162.899 223.669 A 79 79 0 0 0 153.795 238.282 Z" fill="#F1E05A" stroke="#0D1117" stroke-width="1"><title>JavaScript: 3.66% (84 MB)</title></path>
<path d="M 114.274 183.597 A 142 142 0 0 1 124.062 172.622 L 168.844 216.934 A 79 79 0 0 0 163.399 223.040 Z" fill="#DEA584" stroke="#0D1117" stroke-width="1"><title>Rust: 1.79% (41 MB)</title></path>
<path d="M 124.843 171.840 A 142 142 0 0 1 132.711 164.580 L 173.656 212.460 A 79 79 0 0 0 169.279 216.499 Z" fill="#00ADD8" stroke="#0D1117" stroke-width="1"><title>Go: 1.30% (30 MB)</title></path>
<path d="M 133.339 164.046 A 142 142 0 0 1 139.785 158.911 L 177.592 209.306 A 79 79 0 0 0 174.005 212.163 Z" fill="#E34C26" stroke="#0D1117" stroke-width="1"><title>HTML: 1.00% (23 MB)</title></path>
<path d="M 140.324 158.509 A 142 142 0 0 1 146.240 154.344 L 181.183 206.765 A 79 79 0 0 0 177.892 209.082 Z" fill="#B07219" stroke="#0D1117" stroke-width="1"><title>Java: 0.88% (20 MB)</title></path>
<path d="M 146.742 154.011 A 142 142 0 0 1 152.364 150.484 L 184.590 204.618 A 79 79 0 0 0 181.462 206.580 Z" fill="#51D668" stroke="#0D1117" stroke-width="1"><title>LilyPond: 0.81% (19 MB)</title></path>
<path d="M 153.306 149.928 A 142 142 0 0 1 224.195 130.502 L 224.552 193.501 A 79 79 0 0 0 185.114 204.308 Z" fill="#8B949E" stroke="#0D1117" stroke-width="1"><title>Other (127 languages): 8.51% (196 MB)</title></path>
<text class="center-total" x="225" y="267.5" text-anchor="middle">2.2 GB</text>
<text class="center-label" x="225" y="290.5" text-anchor="middle">GitHub Linguist bytes</text>
<rect x="425" y="115" width="14" height="14" rx="3" fill="#F34B7D"/>
<text class="legend-name" x="448" y="127">C++</text>
<text class="legend-value" x="858" y="127" text-anchor="end">33.47% · 770 MB</text>
<rect x="425" y="142" width="14" height="14" rx="3" fill="#555555"/>
<text class="legend-name" x="448" y="154">C</text>
<text class="legend-value" x="858" y="154" text-anchor="end">20.54% · 472 MB</text>
<rect x="425" y="169" width="14" height="14" rx="3" fill="#3572A5"/>
<text class="legend-name" x="448" y="181">Python</text>
<text class="legend-value" x="858" y="181" text-anchor="end">11.67% · 268 MB</text>
<rect x="425" y="196" width="14" height="14" rx="3" fill="#3178C6"/>
<text class="legend-name" x="448" y="208">TypeScript</text>
<text class="legend-value" x="858" y="208" text-anchor="end">11.65% · 268 MB</text>
<rect x="425" y="223" width="14" height="14" rx="3" fill="#DA5B0B"/>
<text class="legend-name" x="448" y="235">Jupyter Notebook</text>
<text class="legend-value" x="858" y="235" text-anchor="end">4.71% · 108 MB</text>
<rect x="425" y="250" width="14" height="14" rx="3" fill="#F1E05A"/>
<text class="legend-name" x="448" y="262">JavaScript</text>
<text class="legend-value" x="858" y="262" text-anchor="end">3.66% · 84 MB</text>
<rect x="425" y="277" width="14" height="14" rx="3" fill="#DEA584"/>
<text class="legend-name" x="448" y="289">Rust</text>
<text class="legend-value" x="858" y="289" text-anchor="end">1.79% · 41 MB</text>
<rect x="425" y="304" width="14" height="14" rx="3" fill="#00ADD8"/>
<text class="legend-name" x="448" y="316">Go</text>
<text class="legend-value" x="858" y="316" text-anchor="end">1.30% · 30 MB</text>
<rect x="425" y="331" width="14" height="14" rx="3" fill="#E34C26"/>
<text class="legend-name" x="448" y="343">HTML</text>
<text class="legend-value" x="858" y="343" text-anchor="end">1.00% · 23 MB</text>
<rect x="425" y="358" width="14" height="14" rx="3" fill="#B07219"/>
<text class="legend-name" x="448" y="370">Java</text>
<text class="legend-value" x="858" y="370" text-anchor="end">0.88% · 20 MB</text>
<rect x="425" y="385" width="14" height="14" rx="3" fill="#51D668"/>
<text class="legend-name" x="448" y="397">LilyPond</text>
<text class="legend-value" x="858" y="397" text-anchor="end">0.81% · 19 MB</text>
<rect x="425" y="412" width="14" height="14" rx="3" fill="#8B949E"/>
<text class="legend-name" x="448" y="424">Other (127 languages)</text>
<text class="legend-value" x="858" y="424" text-anchor="end">8.51% · 196 MB</text>
</svg>
