<svg xmlns="http://www.w3.org/2000/svg" width="900" height="509" viewBox="0 0 900 509" role="img" aria-labelledby="title description">
<title id="title">Languages Used</title>
<desc id="description">Language usage across 429 repositories and 139 languages.</desc>
<rect x="0.5" y="0.5" width="899" height="508" rx="10" fill="#0D1117" stroke="#30363D"/>
<style>text{font-family:-apple-system,BlinkMacSystemFont,"Segoe UI",Helvetica,Arial,sans-serif}.heading{font-size:23px;font-weight:700;fill:#F0F6FC}.subheading{font-size:13px;fill:#8B949E}.legend-name{font-size:14px;font-weight:600;fill:#C9D1D9}.legend-value{font-size:13px;fill:#8B949E}.center-total{font-size:21px;font-weight:700;fill:#F0F6FC}.center-label{font-size:12px;fill:#8B949E}</style>
<text class="heading" x="34" y="43">Languages Used</text>
<text class="subheading" x="34" y="68">429 repositories · 139 languages</text>
<path d="M 225.805 130.502 A 142 142 0 0 1 350.845 338.281 L 295.012 309.096 A 79 79 0 0 0 225.448 193.501 Z" fill="#F34B7D" stroke="#0D1117" stroke-width="1"><title>C++: 32.76% (770 MB)</title></path>
<path d="M 350.090 339.704 A 142 142 0 0 1 200.452 412.362 L 211.343 350.311 A 79 79 0 0 0 294.592 309.888 Z" fill="#555555" stroke="#0D1117" stroke-width="1"><title>C: 20.10% (472 MB)</title></path>
<path d="M 198.867 412.075 A 142 142 0 0 1 109.084 354.521 L 160.512 318.132 A 79 79 0 0 0 210.461 350.151 Z" fill="#3178C6" stroke="#0D1117" stroke-width="1"><title>TypeScript: 12.43% (292 MB)</title></path>
<path d="M 108.161 353.201 A 142 142 0 0 1 84.569 251.449 L 146.873 260.788 A 79 79 0 0 0 159.998 317.397 Z" fill="#3572A5" stroke="#0D1117" stroke-width="1"><title>Python: 12.17% (286 MB)</title></path>
<path d="M 84.817 249.857 A 142 142 0 0 1 96.437 212.205 L 153.475 238.956 A 79 79 0 0 0 147.011 259.903 Z" fill="#DA5B0B" stroke="#0D1117" stroke-width="1"><title>Jupyter Notebook: 4.61% (108 MB)</title></path>
<path d="M 97.129 210.750 A 142 142 0 0 1 114.912 182.808 L 163.754 222.601 A 79 79 0 0 0 153.860 238.146 Z" fill="#F1E05A" stroke="#0D1117" stroke-width="1"><title>JavaScript: 3.90% (92 MB)</title></path>
<path d="M 115.822 181.703 A 142 142 0 0 1 125.574 171.117 L 169.686 216.097 A 79 79 0 0 0 164.260 221.986 Z" fill="#DEA584" stroke="#0D1117" stroke-width="1"><title>Rust: 1.75% (41 MB)</title></path>
<path d="M 126.350 170.362 A 142 142 0 0 1 134.150 163.366 L 174.457 211.784 A 79 79 0 0 0 170.117 215.677 Z" fill="#00ADD8" stroke="#0D1117" stroke-width="1"><title>Go: 1.28% (30 MB)</title></path>
<path d="M 134.772 162.851 A 142 142 0 0 1 141.149 157.901 L 178.350 208.744 A 79 79 0 0 0 174.802 211.498 Z" fill="#E34C26" stroke="#0D1117" stroke-width="1"><title>HTML: 0.98% (23 MB)</title></path>
<path d="M 141.681 157.513 A 142 142 0 0 1 147.517 153.502 L 181.893 206.297 A 79 79 0 0 0 178.647 208.528 Z" fill="#B07219" stroke="#0D1117" stroke-width="1"><title>Java: 0.86% (20 MB)</title></path>
<path d="M 148.013 153.181 A 142 142 0 0 1 153.549 149.786 L 185.249 204.229 A 79 79 0 0 0 182.169 206.119 Z" fill="#51D668" stroke="#0D1117" stroke-width="1"><title>LilyPond: 0.79% (19 MB)</title></path>
<path d="M 154.491 149.242 A 142 142 0 0 1 224.195 130.502 L 224.552 193.501 A 79 79 0 0 0 185.773 203.927 Z" fill="#8B949E" stroke="#0D1117" stroke-width="1"><title>Other (128 languages): 8.36% (196 MB)</title></path>
<text class="center-total" x="225" y="267.5" text-anchor="middle">2.3 GB</text>
<text class="center-label" x="225" y="290.5" text-anchor="middle">GitHub Linguist bytes</text>
<rect x="425" y="115" width="14" height="14" rx="3" fill="#F34B7D"/>
<text class="legend-name" x="448" y="127">C++</text>
<text class="legend-value" x="858" y="127" text-anchor="end">32.76% · 770 MB</text>
<rect x="425" y="142" width="14" height="14" rx="3" fill="#555555"/>
<text class="legend-name" x="448" y="154">C</text>
<text class="legend-value" x="858" y="154" text-anchor="end">20.10% · 472 MB</text>
<rect x="425" y="169" width="14" height="14" rx="3" fill="#3178C6"/>
<text class="legend-name" x="448" y="181">TypeScript</text>
<text class="legend-value" x="858" y="181" text-anchor="end">12.43% · 292 MB</text>
<rect x="425" y="196" width="14" height="14" rx="3" fill="#3572A5"/>
<text class="legend-name" x="448" y="208">Python</text>
<text class="legend-value" x="858" y="208" text-anchor="end">12.17% · 286 MB</text>
<rect x="425" y="223" width="14" height="14" rx="3" fill="#DA5B0B"/>
<text class="legend-name" x="448" y="235">Jupyter Notebook</text>
<text class="legend-value" x="858" y="235" text-anchor="end">4.61% · 108 MB</text>
<rect x="425" y="250" width="14" height="14" rx="3" fill="#F1E05A"/>
<text class="legend-name" x="448" y="262">JavaScript</text>
<text class="legend-value" x="858" y="262" text-anchor="end">3.90% · 92 MB</text>
<rect x="425" y="277" width="14" height="14" rx="3" fill="#DEA584"/>
<text class="legend-name" x="448" y="289">Rust</text>
<text class="legend-value" x="858" y="289" text-anchor="end">1.75% · 41 MB</text>
<rect x="425" y="304" width="14" height="14" rx="3" fill="#00ADD8"/>
<text class="legend-name" x="448" y="316">Go</text>
<text class="legend-value" x="858" y="316" text-anchor="end">1.28% · 30 MB</text>
<rect x="425" y="331" width="14" height="14" rx="3" fill="#E34C26"/>
<text class="legend-name" x="448" y="343">HTML</text>
<text class="legend-value" x="858" y="343" text-anchor="end">0.98% · 23 MB</text>
<rect x="425" y="358" width="14" height="14" rx="3" fill="#B07219"/>
<text class="legend-name" x="448" y="370">Java</text>
<text class="legend-value" x="858" y="370" text-anchor="end">0.86% · 20 MB</text>
<rect x="425" y="385" width="14" height="14" rx="3" fill="#51D668"/>
<text class="legend-name" x="448" y="397">LilyPond</text>
<text class="legend-value" x="858" y="397" text-anchor="end">0.79% · 19 MB</text>
<rect x="425" y="412" width="14" height="14" rx="3" fill="#8B949E"/>
<text class="legend-name" x="448" y="424">Other (128 languages)</text>
<text class="legend-value" x="858" y="424" text-anchor="end">8.36% · 196 MB</text>
</svg>
