<svg xmlns="http://www.w3.org/2000/svg" width="900" height="509" viewBox="0 0 900 509" role="img" aria-labelledby="title description">
<title id="title">Languages Used</title>
<desc id="description">Language usage across 360 repositories and 138 languages.</desc>
<rect x="0.5" y="0.5" width="899" height="508" rx="10" fill="#0D1117" stroke="#30363D"/>
<style>text{font-family:-apple-system,BlinkMacSystemFont,"Segoe UI",Helvetica,Arial,sans-serif}.heading{font-size:23px;font-weight:700;fill:#F0F6FC}.subheading{font-size:13px;fill:#8B949E}.legend-name{font-size:14px;font-weight:600;fill:#C9D1D9}.legend-value{font-size:13px;fill:#8B949E}.center-total{font-size:21px;font-weight:700;fill:#F0F6FC}.center-label{font-size:12px;fill:#8B949E}</style>
<text class="heading" x="34" y="43">Languages Used</text>
<text class="subheading" x="34" y="68">360 repositories · 138 languages</text>
<path d="M 225.805 130.502 A 142 142 0 0 1 334.629 362.753 L 285.991 322.711 A 79 79 0 0 0 225.448 193.501 Z" fill="#F34B7D" stroke="#0D1117" stroke-width="1"><title>C++: 36.05% (725 MB)</title></path>
<path d="M 333.598 363.991 A 142 142 0 0 1 153.941 395.441 L 185.467 340.897 A 79 79 0 0 0 285.417 323.400 Z" fill="#555555" stroke="#0D1117" stroke-width="1"><title>C: 22.38% (450 MB)</title></path>
<path d="M 152.551 394.627 A 142 142 0 0 1 90.643 318.458 L 150.252 298.068 A 79 79 0 0 0 184.694 340.444 Z" fill="#3572A5" stroke="#0D1117" stroke-width="1"><title>Python: 11.41% (229 MB)</title></path>
<path d="M 90.130 316.930 A 142 142 0 0 1 86.088 243.050 L 147.718 256.116 A 79 79 0 0 0 149.967 297.218 Z" fill="#3178C6" stroke="#0D1117" stroke-width="1"><title>TypeScript: 8.57% (172 MB)</title></path>
<path d="M 86.431 241.476 A 142 142 0 0 1 103.758 198.578 L 157.549 231.374 A 79 79 0 0 0 147.909 255.240 Z" fill="#DA5B0B" stroke="#0D1117" stroke-width="1"><title>Jupyter Notebook: 5.39% (108 MB)</title></path>
<path d="M 104.605 197.207 A 142 142 0 0 1 116.399 181.014 L 164.581 221.603 A 79 79 0 0 0 158.020 230.612 Z" fill="#F1E05A" stroke="#0D1117" stroke-width="1"><title>JavaScript: 2.43% (49 MB)</title></path>
<path d="M 117.201 180.069 A 142 142 0 0 1 123.964 172.721 L 168.790 216.989 A 79 79 0 0 0 165.028 221.077 Z" fill="#00ADD8" stroke="#0D1117" stroke-width="1"><title>Go: 1.22% (24 MB)</title></path>
<path d="M 124.540 172.142 A 142 142 0 0 1 130.957 166.105 L 172.680 213.309 A 79 79 0 0 0 169.110 216.667 Z" fill="#E34C26" stroke="#0D1117" stroke-width="1"><title>HTML: 1.07% (22 MB)</title></path>
<path d="M 131.512 165.617 A 142 142 0 0 1 137.844 160.394 L 176.512 210.131 A 79 79 0 0 0 172.989 213.037 Z" fill="#B07219" stroke="#0D1117" stroke-width="1"><title>Java: 1.00% (20 MB)</title></path>
<path d="M 138.387 159.974 A 142 142 0 0 1 144.523 155.506 L 180.228 207.412 A 79 79 0 0 0 176.814 209.897 Z" fill="#51D668" stroke="#0D1117" stroke-width="1"><title>LilyPond: 0.92% (19 MB)</title></path>
<path d="M 145.051 155.145 A 142 142 0 0 1 151.034 151.285 L 183.850 205.064 A 79 79 0 0 0 180.521 207.211 Z" fill="#A97BFF" stroke="#0D1117" stroke-width="1"><title>Kotlin: 0.87% (17 MB)</title></path>
<path d="M 151.988 150.708 A 142 142 0 0 1 224.195 130.502 L 224.552 193.501 A 79 79 0 0 0 184.381 204.743 Z" fill="#8B949E" stroke="#0D1117" stroke-width="1"><title>Other (127 languages): 8.69% (175 MB)</title></path>
<text class="center-total" x="225" y="267.5" text-anchor="middle">2.0 GB</text>
<text class="center-label" x="225" y="290.5" text-anchor="middle">GitHub Linguist bytes</text>
<rect x="425" y="115" width="14" height="14" rx="3" fill="#F34B7D"/>
<text class="legend-name" x="448" y="127">C++</text>
<text class="legend-value" x="858" y="127" text-anchor="end">36.05% · 725 MB</text>
<rect x="425" y="142" width="14" height="14" rx="3" fill="#555555"/>
<text class="legend-name" x="448" y="154">C</text>
<text class="legend-value" x="858" y="154" text-anchor="end">22.38% · 450 MB</text>
<rect x="425" y="169" width="14" height="14" rx="3" fill="#3572A5"/>
<text class="legend-name" x="448" y="181">Python</text>
<text class="legend-value" x="858" y="181" text-anchor="end">11.41% · 229 MB</text>
<rect x="425" y="196" width="14" height="14" rx="3" fill="#3178C6"/>
<text class="legend-name" x="448" y="208">TypeScript</text>
<text class="legend-value" x="858" y="208" text-anchor="end">8.57% · 172 MB</text>
<rect x="425" y="223" width="14" height="14" rx="3" fill="#DA5B0B"/>
<text class="legend-name" x="448" y="235">Jupyter Notebook</text>
<text class="legend-value" x="858" y="235" text-anchor="end">5.39% · 108 MB</text>
<rect x="425" y="250" width="14" height="14" rx="3" fill="#F1E05A"/>
<text class="legend-name" x="448" y="262">JavaScript</text>
<text class="legend-value" x="858" y="262" text-anchor="end">2.43% · 49 MB</text>
<rect x="425" y="277" width="14" height="14" rx="3" fill="#00ADD8"/>
<text class="legend-name" x="448" y="289">Go</text>
<text class="legend-value" x="858" y="289" text-anchor="end">1.22% · 24 MB</text>
<rect x="425" y="304" width="14" height="14" rx="3" fill="#E34C26"/>
<text class="legend-name" x="448" y="316">HTML</text>
<text class="legend-value" x="858" y="316" text-anchor="end">1.07% · 22 MB</text>
<rect x="425" y="331" width="14" height="14" rx="3" fill="#B07219"/>
<text class="legend-name" x="448" y="343">Java</text>
<text class="legend-value" x="858" y="343" text-anchor="end">1.00% · 20 MB</text>
<rect x="425" y="358" width="14" height="14" rx="3" fill="#51D668"/>
<text class="legend-name" x="448" y="370">LilyPond</text>
<text class="legend-value" x="858" y="370" text-anchor="end">0.92% · 19 MB</text>
<rect x="425" y="385" width="14" height="14" rx="3" fill="#A97BFF"/>
<text class="legend-name" x="448" y="397">Kotlin</text>
<text class="legend-value" x="858" y="397" text-anchor="end">0.87% · 17 MB</text>
<rect x="425" y="412" width="14" height="14" rx="3" fill="#8B949E"/>
<text class="legend-name" x="448" y="424">Other (127 languages)</text>
<text class="legend-value" x="858" y="424" text-anchor="end">8.69% · 175 MB</text>
</svg>
