<svg xmlns="http://www.w3.org/2000/svg" width="900" height="509" viewBox="0 0 900 509" role="img" aria-labelledby="title description">
<title id="title">Languages Used</title>
<desc id="description">Language usage across 361 repositories and 138 languages.</desc>
<rect x="0.5" y="0.5" width="899" height="508" rx="10" fill="#0D1117" stroke="#30363D"/>
<style>text{font-family:-apple-system,BlinkMacSystemFont,"Segoe UI",Helvetica,Arial,sans-serif}.heading{font-size:23px;font-weight:700;fill:#F0F6FC}.subheading{font-size:13px;fill:#8B949E}.legend-name{font-size:14px;font-weight:600;fill:#C9D1D9}.legend-value{font-size:13px;fill:#8B949E}.center-total{font-size:21px;font-weight:700;fill:#F0F6FC}.center-label{font-size:12px;fill:#8B949E}</style>
<text class="heading" x="34" y="43">Languages Used</text>
<text class="subheading" x="34" y="68">361 repositories · 138 languages</text>
<path d="M 225.805 130.502 A 142 142 0 0 1 334.919 362.399 L 286.152 322.514 A 79 79 0 0 0 225.448 193.501 Z" fill="#F34B7D" stroke="#0D1117" stroke-width="1"><title>C++: 36.00% (725 MB)</title></path>
<path d="M 333.892 363.640 A 142 142 0 0 1 154.584 395.811 L 185.825 341.102 A 79 79 0 0 0 285.581 323.205 Z" fill="#555555" stroke="#0D1117" stroke-width="1"><title>C: 22.35% (450 MB)</title></path>
<path d="M 153.189 395.004 A 142 142 0 0 1 90.929 319.286 L 150.411 298.529 A 79 79 0 0 0 185.049 340.654 Z" fill="#3572A5" stroke="#0D1117" stroke-width="1"><title>Python: 11.40% (230 MB)</title></path>
<path d="M 90.407 317.762 A 142 142 0 0 1 85.890 243.997 L 147.608 256.643 A 79 79 0 0 0 150.121 297.681 Z" fill="#3178C6" stroke="#0D1117" stroke-width="1"><title>TypeScript: 8.56% (172 MB)</title></path>
<path d="M 86.222 242.420 A 142 142 0 0 1 103.222 199.464 L 157.250 231.867 A 79 79 0 0 0 147.793 255.766 Z" fill="#DA5B0B" stroke="#0D1117" stroke-width="1"><title>Jupyter Notebook: 5.38% (108 MB)</title></path>
<path d="M 104.059 198.088 A 142 142 0 0 1 115.714 181.832 L 164.200 222.058 A 79 79 0 0 0 157.716 231.102 Z" fill="#F1E05A" stroke="#0D1117" stroke-width="1"><title>JavaScript: 2.42% (49 MB)</title></path>
<path d="M 116.510 180.882 A 142 142 0 0 1 123.207 173.494 L 168.369 217.419 A 79 79 0 0 0 164.643 221.529 Z" fill="#00ADD8" stroke="#0D1117" stroke-width="1"><title>Go: 1.22% (24 MB)</title></path>
<path d="M 123.778 172.910 A 142 142 0 0 1 130.139 166.834 L 172.225 213.714 A 79 79 0 0 0 168.686 217.094 Z" fill="#E34C26" stroke="#0D1117" stroke-width="1"><title>HTML: 1.07% (22 MB)</title></path>
<path d="M 130.690 166.341 A 142 142 0 0 1 136.972 161.077 L 176.026 210.511 A 79 79 0 0 0 172.532 213.440 Z" fill="#B07219" stroke="#0D1117" stroke-width="1"><title>Java: 1.00% (20 MB)</title></path>
<path d="M 137.511 160.653 A 142 142 0 0 1 143.603 156.145 L 179.716 207.767 A 79 79 0 0 0 176.327 210.275 Z" fill="#51D668" stroke="#0D1117" stroke-width="1"><title>LilyPond: 0.92% (19 MB)</title></path>
<path d="M 144.128 155.780 A 142 142 0 0 1 150.071 151.878 L 183.314 205.393 A 79 79 0 0 0 180.008 207.564 Z" fill="#A97BFF" stroke="#0D1117" stroke-width="1"><title>Kotlin: 0.87% (17 MB)</title></path>
<path d="M 151.020 151.294 A 142 142 0 0 1 224.195 130.502 L 224.552 193.501 A 79 79 0 0 0 183.842 205.068 Z" fill="#8B949E" stroke="#0D1117" stroke-width="1"><title>Other (127 languages): 8.81% (177 MB)</title></path>
<text class="center-total" x="225" y="267.5" text-anchor="middle">2.0 GB</text>
<text class="center-label" x="225" y="290.5" text-anchor="middle">GitHub Linguist bytes</text>
<rect x="425" y="115" width="14" height="14" rx="3" fill="#F34B7D"/>
<text class="legend-name" x="448" y="127">C++</text>
<text class="legend-value" x="858" y="127" text-anchor="end">36.00% · 725 MB</text>
<rect x="425" y="142" width="14" height="14" rx="3" fill="#555555"/>
<text class="legend-name" x="448" y="154">C</text>
<text class="legend-value" x="858" y="154" text-anchor="end">22.35% · 450 MB</text>
<rect x="425" y="169" width="14" height="14" rx="3" fill="#3572A5"/>
<text class="legend-name" x="448" y="181">Python</text>
<text class="legend-value" x="858" y="181" text-anchor="end">11.40% · 230 MB</text>
<rect x="425" y="196" width="14" height="14" rx="3" fill="#3178C6"/>
<text class="legend-name" x="448" y="208">TypeScript</text>
<text class="legend-value" x="858" y="208" text-anchor="end">8.56% · 172 MB</text>
<rect x="425" y="223" width="14" height="14" rx="3" fill="#DA5B0B"/>
<text class="legend-name" x="448" y="235">Jupyter Notebook</text>
<text class="legend-value" x="858" y="235" text-anchor="end">5.38% · 108 MB</text>
<rect x="425" y="250" width="14" height="14" rx="3" fill="#F1E05A"/>
<text class="legend-name" x="448" y="262">JavaScript</text>
<text class="legend-value" x="858" y="262" text-anchor="end">2.42% · 49 MB</text>
<rect x="425" y="277" width="14" height="14" rx="3" fill="#00ADD8"/>
<text class="legend-name" x="448" y="289">Go</text>
<text class="legend-value" x="858" y="289" text-anchor="end">1.22% · 24 MB</text>
<rect x="425" y="304" width="14" height="14" rx="3" fill="#E34C26"/>
<text class="legend-name" x="448" y="316">HTML</text>
<text class="legend-value" x="858" y="316" text-anchor="end">1.07% · 22 MB</text>
<rect x="425" y="331" width="14" height="14" rx="3" fill="#B07219"/>
<text class="legend-name" x="448" y="343">Java</text>
<text class="legend-value" x="858" y="343" text-anchor="end">1.00% · 20 MB</text>
<rect x="425" y="358" width="14" height="14" rx="3" fill="#51D668"/>
<text class="legend-name" x="448" y="370">LilyPond</text>
<text class="legend-value" x="858" y="370" text-anchor="end">0.92% · 19 MB</text>
<rect x="425" y="385" width="14" height="14" rx="3" fill="#A97BFF"/>
<text class="legend-name" x="448" y="397">Kotlin</text>
<text class="legend-value" x="858" y="397" text-anchor="end">0.87% · 17 MB</text>
<rect x="425" y="412" width="14" height="14" rx="3" fill="#8B949E"/>
<text class="legend-name" x="448" y="424">Other (127 languages)</text>
<text class="legend-value" x="858" y="424" text-anchor="end">8.81% · 177 MB</text>
</svg>
