<svg xmlns="http://www.w3.org/2000/svg" width="900" height="509" viewBox="0 0 900 509" role="img" aria-labelledby="title description">
<title id="title">Languages Used</title>
<desc id="description">Language usage across 372 repositories and 138 languages.</desc>
<rect x="0.5" y="0.5" width="899" height="508" rx="10" fill="#0D1117" stroke="#30363D"/>
<style>text{font-family:-apple-system,BlinkMacSystemFont,"Segoe UI",Helvetica,Arial,sans-serif}.heading{font-size:23px;font-weight:700;fill:#F0F6FC}.subheading{font-size:13px;fill:#8B949E}.legend-name{font-size:14px;font-weight:600;fill:#C9D1D9}.legend-value{font-size:13px;fill:#8B949E}.center-total{font-size:21px;font-weight:700;fill:#F0F6FC}.center-label{font-size:12px;fill:#8B949E}</style>
<text class="heading" x="34" y="43">Languages Used</text>
<text class="subheading" x="34" y="68">372 repositories · 138 languages</text>
<path d="M 225.805 130.502 A 142 142 0 0 1 337.337 359.358 L 287.498 320.822 A 79 79 0 0 0 225.448 193.501 Z" fill="#F34B7D" stroke="#0D1117" stroke-width="1"><title>C++: 35.57% (725 MB)</title></path>
<path d="M 336.345 360.627 A 142 142 0 0 1 160.116 398.810 L 188.903 342.771 A 79 79 0 0 0 286.945 321.528 Z" fill="#555555" stroke="#0D1117" stroke-width="1"><title>C: 22.08% (450 MB)</title></path>
<path d="M 158.688 398.065 A 142 142 0 0 1 93.141 325.200 L 151.642 301.819 A 79 79 0 0 0 188.108 342.357 Z" fill="#3572A5" stroke="#0D1117" stroke-width="1"><title>Python: 11.40% (232 MB)</title></path>
<path d="M 92.552 323.701 A 142 142 0 0 1 85.161 247.819 L 147.202 258.769 A 79 79 0 0 0 151.314 300.985 Z" fill="#3178C6" stroke="#0D1117" stroke-width="1"><title>TypeScript: 8.83% (180 MB)</title></path>
<path d="M 85.450 246.234 A 142 142 0 0 1 100.983 203.335 L 156.005 234.021 A 79 79 0 0 0 147.363 257.887 Z" fill="#DA5B0B" stroke="#0D1117" stroke-width="1"><title>Jupyter Notebook: 5.32% (108 MB)</title></path>
<path d="M 101.776 201.932 A 142 142 0 0 1 113.057 185.134 L 162.722 223.895 A 79 79 0 0 0 156.446 233.241 Z" fill="#F1E05A" stroke="#0D1117" stroke-width="1"><title>JavaScript: 2.45% (50 MB)</title></path>
<path d="M 113.863 184.111 A 142 142 0 0 1 121.336 175.455 L 167.328 218.510 A 79 79 0 0 0 163.170 223.326 Z" fill="#00ADD8" stroke="#0D1117" stroke-width="1"><title>Go: 1.39% (28 MB)</title></path>
<path d="M 121.937 174.817 A 142 142 0 0 1 128.129 168.674 L 171.107 214.737 A 79 79 0 0 0 167.662 218.155 Z" fill="#E34C26" stroke="#0D1117" stroke-width="1"><title>HTML: 1.06% (22 MB)</title></path>
<path d="M 128.665 168.176 A 142 142 0 0 1 134.767 162.855 L 174.800 211.500 A 79 79 0 0 0 171.405 214.461 Z" fill="#B07219" stroke="#0D1117" stroke-width="1"><title>Java: 0.99% (20 MB)</title></path>
<path d="M 135.293 162.425 A 142 142 0 0 1 141.252 157.825 L 178.408 208.702 A 79 79 0 0 0 175.092 211.261 Z" fill="#DEA584" stroke="#0D1117" stroke-width="1"><title>Rust: 0.92% (19 MB)</title></path>
<path d="M 141.780 157.441 A 142 142 0 0 1 147.961 153.215 L 182.140 206.137 A 79 79 0 0 0 178.702 208.489 Z" fill="#51D668" stroke="#0D1117" stroke-width="1"><title>LilyPond: 0.91% (19 MB)</title></path>
<path d="M 148.913 152.605 A 142 142 0 0 1 224.195 130.502 L 224.552 193.501 A 79 79 0 0 0 182.670 205.798 Z" fill="#8B949E" stroke="#0D1117" stroke-width="1"><title>Other (127 languages): 9.09% (185 MB)</title></path>
<text class="center-total" x="225" y="267.5" text-anchor="middle">2.0 GB</text>
<text class="center-label" x="225" y="290.5" text-anchor="middle">GitHub Linguist bytes</text>
<rect x="425" y="115" width="14" height="14" rx="3" fill="#F34B7D"/>
<text class="legend-name" x="448" y="127">C++</text>
<text class="legend-value" x="858" y="127" text-anchor="end">35.57% · 725 MB</text>
<rect x="425" y="142" width="14" height="14" rx="3" fill="#555555"/>
<text class="legend-name" x="448" y="154">C</text>
<text class="legend-value" x="858" y="154" text-anchor="end">22.08% · 450 MB</text>
<rect x="425" y="169" width="14" height="14" rx="3" fill="#3572A5"/>
<text class="legend-name" x="448" y="181">Python</text>
<text class="legend-value" x="858" y="181" text-anchor="end">11.40% · 232 MB</text>
<rect x="425" y="196" width="14" height="14" rx="3" fill="#3178C6"/>
<text class="legend-name" x="448" y="208">TypeScript</text>
<text class="legend-value" x="858" y="208" text-anchor="end">8.83% · 180 MB</text>
<rect x="425" y="223" width="14" height="14" rx="3" fill="#DA5B0B"/>
<text class="legend-name" x="448" y="235">Jupyter Notebook</text>
<text class="legend-value" x="858" y="235" text-anchor="end">5.32% · 108 MB</text>
<rect x="425" y="250" width="14" height="14" rx="3" fill="#F1E05A"/>
<text class="legend-name" x="448" y="262">JavaScript</text>
<text class="legend-value" x="858" y="262" text-anchor="end">2.45% · 50 MB</text>
<rect x="425" y="277" width="14" height="14" rx="3" fill="#00ADD8"/>
<text class="legend-name" x="448" y="289">Go</text>
<text class="legend-value" x="858" y="289" text-anchor="end">1.39% · 28 MB</text>
<rect x="425" y="304" width="14" height="14" rx="3" fill="#E34C26"/>
<text class="legend-name" x="448" y="316">HTML</text>
<text class="legend-value" x="858" y="316" text-anchor="end">1.06% · 22 MB</text>
<rect x="425" y="331" width="14" height="14" rx="3" fill="#B07219"/>
<text class="legend-name" x="448" y="343">Java</text>
<text class="legend-value" x="858" y="343" text-anchor="end">0.99% · 20 MB</text>
<rect x="425" y="358" width="14" height="14" rx="3" fill="#DEA584"/>
<text class="legend-name" x="448" y="370">Rust</text>
<text class="legend-value" x="858" y="370" text-anchor="end">0.92% · 19 MB</text>
<rect x="425" y="385" width="14" height="14" rx="3" fill="#51D668"/>
<text class="legend-name" x="448" y="397">LilyPond</text>
<text class="legend-value" x="858" y="397" text-anchor="end">0.91% · 19 MB</text>
<rect x="425" y="412" width="14" height="14" rx="3" fill="#8B949E"/>
<text class="legend-name" x="448" y="424">Other (127 languages)</text>
<text class="legend-value" x="858" y="424" text-anchor="end">9.09% · 185 MB</text>
</svg>
